<svg width="18" height="17" viewBox="0 0 18 17" fill="none" xmlns="http://www.w3.org/2000/svg">
<path fill-rule="evenodd" clip-rule="evenodd" d="M8.99984 0.166504C4.39984 0.166504 0.666504 3.89984 0.666504 8.49984C0.666504 13.0998 4.39984 16.8332 8.99984 16.8332C13.5998 16.8332 17.3332 13.0998 17.3332 8.49984C17.3332 3.89984 13.5998 0.166504 8.99984 0.166504ZM8.99984 15.1665C5.32484 15.1665 2.33317 12.1748 2.33317 8.49984C2.33317 4.82484 5.32484 1.83317 8.99984 1.83317C12.6748 1.83317 15.6665 4.82484 15.6665 8.49984C15.6665 12.1748 12.6748 15.1665 8.99984 15.1665ZM7.33317 10.3082L12.8248 4.81652L13.9998 5.99985L7.33317 12.6665L3.99984 9.33319L5.17484 8.15819L7.33317 10.3082Z" fill="#B50000"/>
</svg>
