<svg width="18" height="17" viewBox="0 0 18 17" fill="none" xmlns="http://www.w3.org/2000/svg">
<path d="M9.17122 0.166504C4.57622 0.166504 0.837891 3.90484 0.837891 8.49984C0.837891 13.0948 4.57622 16.8332 9.17122 16.8332C13.7662 16.8332 17.5046 13.0948 17.5046 8.49984C17.5046 3.90484 13.7662 0.166504 9.17122 0.166504ZM9.17122 15.1665C5.49539 15.1665 2.50456 12.1757 2.50456 8.49984C2.50456 4.824 5.49539 1.83317 9.17122 1.83317C12.8471 1.83317 15.8379 4.824 15.8379 8.49984C15.8379 12.1757 12.8471 15.1665 9.17122 15.1665Z" fill="#666665"/>
<path d="M10.0046 4.33317H8.33789V9.33317H13.3379V7.6665H10.0046V4.33317Z" fill="#666665"/>
</svg>
