<svg width="243" height="81" viewBox="0 0 243 81" fill="none" xmlns="http://www.w3.org/2000/svg">
<g clip-path="url(#clip0_1_2903)">
<path d="M110.879 25.065H88.6859V20.6302H110.879V13.9346H82.0669V31.7607H104.217V36.1954H82.0669V42.8911H110.879V25.065V25.065ZM114.989 13.9346V42.8911H143.801V13.9346H114.989ZM137.139 36.2389H121.608V20.6302H137.139V36.2389ZM170.277 13.9346H147.911V42.8911H176.723V22.9346L170.277 13.9346ZM154.573 36.2389V20.6302H166.427L170.104 25.7607V36.2389H154.573V36.2389ZM180.876 13.9346V42.8911H209.688V13.9346H180.876ZM203.069 36.2389H187.538V20.6302H203.069V36.2389ZM242.61 13.9346H234.607L228.204 22.8476L221.801 13.9346H213.798L224.181 28.4128L213.798 42.8911H221.801L228.204 33.9781L234.607 42.8911H242.61L232.227 28.4128L242.61 13.9346Z" fill="#B50000"/>
<path d="M82.0234 60.8477V51.9347H83.9702V60.8477H82.0234ZM86.2198 60.8477V51.9347H88.0368L92.1899 57.4129V51.9347H94.1366V60.8477H92.4927L88.2098 55.1955V60.8477H86.2198ZM96.2132 60.8477V51.9347H99.6741C101.058 51.9347 102.183 52.3694 103.048 53.1955C103.914 54.0216 104.346 55.1086 104.346 56.3694C104.346 57.6303 103.914 58.7173 103.048 59.5434C102.183 60.4129 101.015 60.8042 99.6741 60.8042H96.2132V60.8477ZM98.1599 59.0651H99.6741C100.496 59.0651 101.145 58.8042 101.621 58.326C102.097 57.8477 102.356 57.1955 102.356 56.3694C102.356 55.5868 102.097 54.9347 101.621 54.4129C101.145 53.9347 100.496 53.6738 99.6741 53.6738H98.1599V59.0651ZM109.841 60.9781C108.629 60.9781 107.721 60.6303 107.029 59.9781C106.336 59.2825 106.034 58.326 106.034 57.0216V51.9347H107.98V56.9781C107.98 57.6738 108.153 58.239 108.499 58.6303C108.846 58.9781 109.278 59.1955 109.927 59.1955C110.576 59.1955 111.009 59.0216 111.355 58.6303C111.701 58.2825 111.831 57.7607 111.831 57.0216V51.9347H113.777V56.9781C113.777 58.2825 113.431 59.326 112.739 59.9781C112.004 60.6303 111.052 60.9781 109.841 60.9781ZM118.882 60.9781C117.411 60.9781 116.157 60.4999 115.118 59.5434L116.286 58.152C117.152 58.8912 118.017 59.239 118.925 59.239C119.315 59.239 119.618 59.152 119.877 59.0216C120.093 58.8477 120.223 58.6738 120.223 58.3694C120.223 58.1086 120.093 57.8912 119.877 57.7607C119.618 57.5868 119.142 57.4129 118.45 57.239C117.93 57.1086 117.541 56.9781 117.238 56.8912C116.935 56.7607 116.633 56.5868 116.33 56.4129C116.027 56.239 115.854 55.9347 115.724 55.6303C115.594 55.326 115.551 54.9347 115.551 54.4999C115.551 53.7173 115.811 53.0651 116.416 52.5433C116.979 52.0651 117.757 51.8042 118.666 51.8042C119.92 51.8042 121.002 52.1955 121.954 52.9347L120.959 54.4129C120.137 53.8477 119.358 53.5434 118.666 53.5434C118.32 53.5434 118.017 53.6303 117.801 53.7607C117.584 53.8912 117.498 54.1086 117.498 54.326C117.498 54.6303 117.628 54.8477 117.844 54.9781C118.103 55.1086 118.623 55.2825 119.401 55.4999C120.353 55.7607 121.089 56.0651 121.521 56.4999C121.997 56.8912 122.213 57.4564 122.213 58.239C122.213 59.1086 121.91 59.7607 121.305 60.2825C120.613 60.7173 119.834 60.9781 118.882 60.9781ZM125.674 60.8477V53.7607H122.992V51.9347H130.346V53.7607H127.664V60.8477H125.674ZM131.817 60.8477V51.9347H135.884C137.009 51.9347 137.874 52.239 138.48 52.8477C138.999 53.3694 139.258 54.0651 139.258 54.8912C139.258 56.239 138.609 57.1955 137.355 57.6738L139.518 60.8477H137.225L135.278 57.9781H133.764V60.8477H131.817ZM133.807 56.239H135.797C136.273 56.239 136.619 56.1086 136.879 55.8912C137.138 55.6303 137.268 55.326 137.268 54.9347C137.268 54.4999 137.138 54.1955 136.879 53.9781C136.619 53.7607 136.23 53.6303 135.754 53.6303H133.807V56.239ZM141.075 60.8477V51.9347H143.022V60.8477H141.075ZM144.493 60.8477L148.3 51.8912H150.117L153.924 60.8477H151.847L151.025 58.8477H147.262L146.44 60.8477H144.493ZM147.997 57.1086H150.333L149.165 54.239L147.997 57.1086ZM155.265 60.8477V51.9347H157.212V59.0651H161.624V60.8477H155.265ZM170.06 60.9781C168.59 60.9781 167.335 60.4999 166.297 59.5434L167.465 58.152C168.33 58.8912 169.195 59.239 170.104 59.239C170.493 59.239 170.796 59.152 171.055 59.0216C171.272 58.8477 171.402 58.6738 171.402 58.3694C171.402 58.1086 171.272 57.8912 171.055 57.7607C170.796 57.5868 170.32 57.4129 169.628 57.239C169.109 57.1086 168.719 56.9781 168.417 56.8912C168.114 56.7607 167.811 56.5868 167.508 56.4129C167.248 56.1955 167.032 55.9347 166.902 55.6303C166.773 55.326 166.729 54.9347 166.729 54.4999C166.729 53.7173 166.989 53.0651 167.595 52.5433C168.2 52.0216 168.936 51.8042 169.844 51.8042C171.099 51.8042 172.18 52.1955 173.132 52.9347L172.137 54.4129C171.315 53.8477 170.536 53.5434 169.844 53.5434C169.498 53.5434 169.195 53.6303 168.979 53.7607C168.763 53.8912 168.676 54.1086 168.676 54.326C168.676 54.6303 168.806 54.8477 169.022 54.9781C169.282 55.1086 169.801 55.2825 170.58 55.4999C171.531 55.7607 172.267 56.0651 172.699 56.4999C173.175 56.8912 173.392 57.4564 173.392 58.239C173.392 59.1086 173.089 59.7607 172.483 60.2825C171.834 60.7173 171.055 60.9781 170.06 60.9781ZM182.693 59.6303C181.784 60.4999 180.659 60.9781 179.318 60.9781C177.977 60.9781 176.852 60.5434 175.944 59.6303C175.079 58.7607 174.603 57.6303 174.603 56.3694C174.603 55.1086 175.036 54.0216 175.944 53.1086C176.852 52.1955 177.977 51.7607 179.318 51.7607C180.659 51.7607 181.784 52.1955 182.693 53.1086C183.601 53.9781 184.034 55.1086 184.034 56.3694C184.034 57.6303 183.601 58.7607 182.693 59.6303ZM177.415 58.3694C177.934 58.9347 178.54 59.1955 179.362 59.1955C180.14 59.1955 180.789 58.9347 181.265 58.4129C181.741 57.8477 182.001 57.1955 182.001 56.4129C182.001 55.6303 181.741 54.9781 181.222 54.4129C180.703 53.8477 180.054 53.5868 179.275 53.5868C178.496 53.5868 177.848 53.8477 177.372 54.4129C176.852 54.9347 176.636 55.6303 176.636 56.4129C176.679 57.152 176.939 57.8042 177.415 58.3694ZM185.808 60.8477V51.9347H187.754V59.0651H192.167V60.8477H185.808ZM197.056 60.9781C195.844 60.9781 194.893 60.6303 194.244 59.9781C193.551 59.2825 193.249 58.326 193.249 57.0216V51.9347H195.195V56.9781C195.195 57.6738 195.368 58.239 195.714 58.6303C196.061 58.9781 196.493 59.1955 197.142 59.1955C197.748 59.1955 198.224 59.0216 198.57 58.6303C198.916 58.2825 199.046 57.7607 199.046 57.0216V51.9347H200.992V56.9781C200.992 58.2825 200.646 59.326 199.954 59.9781C199.219 60.6303 198.31 60.9781 197.056 60.9781ZM205.016 60.8477V53.7607H202.333V51.9347H209.688V53.7607H207.006V60.8477H205.016ZM211.245 60.8477V51.9347H213.192V60.8477H211.245ZM223.099 59.6303C222.19 60.4999 221.066 60.9781 219.725 60.9781C218.383 60.9781 217.259 60.5434 216.35 59.6303C215.442 58.7173 215.009 57.6303 215.009 56.3694C215.009 55.1086 215.442 54.0216 216.35 53.1086C217.259 52.1955 218.383 51.7607 219.725 51.7607C221.066 51.7607 222.19 52.1955 223.099 53.1086C224.007 53.9781 224.44 55.1086 224.44 56.3694C224.44 57.6303 224.007 58.7607 223.099 59.6303ZM217.821 58.3694C218.34 58.9347 218.946 59.1955 219.768 59.1955C220.547 59.1955 221.195 58.9347 221.671 58.4129C222.147 57.8477 222.407 57.1955 222.407 56.4129C222.407 55.6303 222.147 54.9781 221.628 54.4129C221.109 53.8477 220.46 53.5868 219.681 53.5868C218.903 53.5868 218.254 53.8477 217.778 54.4129C217.259 54.9347 217.042 55.6303 217.042 56.4129C217.086 57.152 217.345 57.8042 217.821 58.3694ZM226.214 60.8477V51.9347H228.031L232.184 57.4129V51.9347H234.131V60.8477H232.487L228.204 55.1955V60.8477H226.214ZM239.365 60.9781C237.894 60.9781 236.64 60.4999 235.601 59.5434L236.77 58.152C237.635 58.8912 238.5 59.239 239.409 59.239C239.798 59.239 240.101 59.152 240.36 59.0216C240.577 58.8477 240.706 58.6738 240.706 58.3694C240.706 58.1086 240.577 57.8912 240.36 57.7607C240.101 57.5868 239.668 57.4129 238.933 57.239C238.413 57.1086 238.024 56.9781 237.721 56.8912C237.418 56.7607 237.116 56.5868 236.813 56.4129C236.553 56.1955 236.337 55.9347 236.207 55.6303C236.077 55.326 236.034 54.9347 236.034 54.4999C236.034 53.7173 236.337 53.0651 236.899 52.5433C237.462 52.0651 238.24 51.8042 239.149 51.8042C240.404 51.8042 241.485 52.1955 242.437 52.9347L241.442 54.4129C240.62 53.8477 239.841 53.5434 239.149 53.5434C238.803 53.5434 238.5 53.6303 238.284 53.7607C238.111 53.8912 237.981 54.1086 237.981 54.326C237.981 54.6303 238.111 54.8477 238.327 54.9781C238.587 55.1086 239.106 55.2825 239.884 55.4999C240.836 55.7607 241.572 56.0651 242.004 56.4999C242.48 56.8912 242.696 57.4564 242.696 58.239C242.696 59.1086 242.394 59.7607 241.831 60.2825C241.139 60.7173 240.317 60.9781 239.365 60.9781Z" fill="#727271"/>
<path fill-rule="evenodd" clip-rule="evenodd" d="M30.0233 72.674L34.5225 75.2827L64.5027 57.8914L69.0019 55.2827V60.5001L34.5225 80.5001L30.0233 77.8914L25.5241 75.2827L21.0249 72.674L17.3045 70.5001L16.5258 70.0653L12.0266 67.4566L0.0864258 60.5001V51.848L4.58561 49.2393V57.8914L16.5258 64.8479L21.0249 67.4566L25.5241 70.0653L30.0233 72.674Z" fill="#B50000"/>
<path fill-rule="evenodd" clip-rule="evenodd" d="M13.5841 52.6741L25.5243 59.5872L30.0235 62.1959L34.5227 64.8481L55.5045 52.6741L60.0036 50.0655L64.5028 47.4568L69.002 44.8481V50.0655L64.5028 52.6741L60.0036 55.2828L34.5227 70.0654L30.0235 67.4568L25.5243 64.8481L21.0251 62.1959L9.08496 55.2828V46.6307L13.5841 44.022V52.6741Z" fill="#B50000"/>
<path fill-rule="evenodd" clip-rule="evenodd" d="M34.5225 16.1522L13.584 28.3261L9.0848 30.9348L4.58561 33.5435V38.7609L9.0848 36.1522L13.584 33.5435L18.0832 30.9348L34.5225 21.3696L39.0217 18.7609L43.5209 16.1522L48.0201 13.5435L43.5209 10.9348L39.0217 13.5435L34.5225 16.1522ZM34.5225 5.71739L4.58561 23.1087V28.3261L9.0848 25.7174L34.5658 10.9348L39.065 8.32609L34.5225 5.71739ZM34.5225 0.5L39.0217 3.1087L43.5209 5.71739L48.0201 8.32609L52.5193 10.9348L57.0185 13.5435L52.5193 16.1522L48.0201 18.7609L43.5209 21.3696L39.0217 23.9783L34.5225 26.587L22.5824 33.5435L18.0832 36.1522L13.584 38.7609L9.0848 41.3696L4.58561 43.9783L0.0864258 46.5869V41.3696V40.5V36.1522V30.9348V25.7174V20.5L34.5225 0.5Z" fill="#727271"/>
<path fill-rule="evenodd" clip-rule="evenodd" d="M34.5224 59.587L30.0232 56.9783L18.083 50.0653V41.4131L22.5822 38.8044V47.4566L34.5224 54.3696L55.5041 42.2392L60.0033 39.587L64.5025 36.9783L69.0017 34.3696V39.587L64.5025 42.2392L60.0033 44.8479L34.5224 59.587Z" fill="#B50000"/>
</g>
<defs>
<clipPath id="clip0_1_2903">
<rect width="242.697" height="80" fill="white" transform="translate(0 0.5)"/>
</clipPath>
</defs>
</svg>
