<svg width="18" height="19" viewBox="0 0 18 19" fill="none" xmlns="http://www.w3.org/2000/svg">
<path fill-rule="evenodd" clip-rule="evenodd" d="M0.75 5.75C0.75 4.50736 1.75736 3.5 3 3.5H15C16.2426 3.5 17.25 4.50736 17.25 5.75V13.25C17.25 14.4926 16.2426 15.5 15 15.5H3C1.75736 15.5 0.75 14.4926 0.75 13.25V5.75ZM3 5C2.58579 5 2.25 5.33579 2.25 5.75V13.25C2.25 13.6642 2.58579 14 3 14H15C15.4142 14 15.75 13.6642 15.75 13.25V5.75C15.75 5.33579 15.4142 5 15 5H3Z" fill="#B50000"/>
<path fill-rule="evenodd" clip-rule="evenodd" d="M16.5006 5.32048L16.2676 5.54257C16.243 5.56606 16.2168 5.58784 16.1892 5.60777L9.43919 10.4828C9.17706 10.6721 8.82309 10.6721 8.56096 10.4828L1.81096 5.60777C1.76926 5.57766 1.73077 5.54334 1.6961 5.50535L1.49341 5.28325L2.60136 4.27209L2.7519 4.43705L9.00008 8.94961L15.2695 4.42168L15.4655 4.23486L16.5006 5.32048Z" fill="#B50000"/>
</svg>
