<svg width="18" height="19" viewBox="0 0 18 19" fill="none" xmlns="http://www.w3.org/2000/svg">
<path fill-rule="evenodd" clip-rule="evenodd" d="M5.5934 4.2854C5.54619 4.2382 5.46966 4.2382 5.42245 4.2854L4.37909 5.32877C3.74611 5.96175 3.57217 6.92098 3.94259 7.73591C5.31701 10.7596 7.74039 13.183 10.7641 14.5574C11.579 14.9279 12.5383 14.7539 13.1713 14.1209L14.2146 13.0776C14.2618 13.0304 14.2618 12.9538 14.2146 12.9066L12.8111 11.5031C12.7743 11.4663 12.7181 11.4572 12.6715 11.4804L11.8926 11.8699C10.9333 12.3495 9.77471 12.1615 9.01632 11.4031L7.09689 9.4837C6.3385 8.72531 6.15048 7.56672 6.63013 6.60743L7.0196 5.82849C7.04287 5.78196 7.03375 5.72575 6.99696 5.68896L5.5934 4.2854ZM4.36179 3.22474C4.99478 2.59175 6.02107 2.59175 6.65406 3.22474L8.05762 4.6283C8.55095 5.12163 8.67325 5.87529 8.36124 6.49931L7.97177 7.27825C7.78087 7.66006 7.8557 8.12119 8.15755 8.42304L10.077 10.3425C10.3788 10.6443 10.84 10.7192 11.2218 10.5282L12.0007 10.1388C12.6247 9.82677 13.3784 9.94908 13.8717 10.4424L15.2753 11.846C15.9083 12.479 15.9083 13.5052 15.2753 14.1382L14.2319 15.1816C13.1568 16.2567 11.5276 16.5521 10.1434 15.923C6.78952 14.3985 4.10154 11.7105 2.57704 8.35661C1.94788 6.97246 2.24332 5.34322 3.31843 4.26811L4.36179 3.22474Z" fill="#B50000"/>
</svg>
