<svg width="16" height="16" viewBox="0 0 16 16" fill="none" xmlns="http://www.w3.org/2000/svg">
<path d="M12.2602 8.65827C11.9343 8.33244 11.4077 8.33244 11.0818 8.65827L9.75351 9.98661C9.13768 9.80327 7.98851 9.38661 7.26018 8.65827C6.53185 7.92994 6.11518 6.78077 5.93185 6.16494L7.26018 4.83661C7.58601 4.51077 7.58601 3.98411 7.26018 3.65827L3.92685 0.324941C3.60101 -0.000891932 3.07435 -0.000891932 2.74851 0.324941L0.488514 2.58494C0.171847 2.90161 -0.00648621 3.33661 0.000180454 3.78077C0.0193471 4.96744 0.333514 9.08911 3.58185 12.3374C6.83018 15.5858 10.9518 15.8991 12.1393 15.9191C12.1435 15.9191 12.1585 15.9191 12.1627 15.9191C12.6027 15.9191 13.0185 15.7458 13.3335 15.4308L15.5935 13.1708C15.9193 12.8449 15.9193 12.3183 15.5935 11.9924L12.2602 8.65827ZM12.1543 14.2516C11.1143 14.2341 7.55601 13.9549 4.76018 11.1583C1.95518 8.35327 1.68351 4.78244 1.66685 3.76327L3.33768 2.09244L5.49268 4.24744L4.41518 5.32494C4.21601 5.52327 4.13101 5.80994 4.18851 6.08494C4.20851 6.18077 4.69768 8.45327 6.08101 9.83661C7.46435 11.2199 9.73685 11.7091 9.83268 11.7291C10.1102 11.7883 10.3943 11.7024 10.5927 11.5033L11.671 10.4258L13.826 12.5808L12.1543 14.2516Z" fill="#666665"/>
</svg>
