<svg width="222" height="101" viewBox="0 0 222 101" fill="none" xmlns="http://www.w3.org/2000/svg">
<path d="M220.121 59.4837H189.186L189.223 55.2574C189.261 55.2705 189.302 55.2828 189.343 55.2932C190.299 55.5905 191.307 55.685 192.302 55.5705C193.297 55.456 194.257 55.1351 195.121 54.6284C196.041 53.9414 196.809 53.0713 197.376 52.0727C197.942 51.0742 198.296 49.969 198.415 48.8269C198.451 48.6184 198.442 48.4046 198.388 48.1999L192.914 27.6181C192.859 27.4142 192.758 27.2254 192.62 27.0655L192.284 26.5061L192.192 26.4533C192.075 26.325 191.932 26.2232 191.773 26.1549L187.713 24.5854C187.629 24.5523 187.542 24.5288 187.453 24.5155L185.162 23.6485C185.064 23.5784 184.958 23.5209 184.846 23.4776L181.798 22.3016C181.659 22.2484 181.513 22.218 181.364 22.2118C181.446 22.0373 181.525 21.8558 181.614 21.648L181.742 21.3404C181.82 21.1446 181.891 20.9438 181.963 20.7388C182.012 20.5973 182.06 20.4555 182.108 20.3045C182.167 20.1137 182.224 19.921 182.276 19.7283C182.322 19.5583 182.363 19.3863 182.406 19.2118C182.448 19.0294 182.49 18.8482 182.53 18.6592C182.569 18.4598 182.604 18.257 182.636 18.0568L182.654 17.9519C182.677 17.8168 182.7 17.6826 182.718 17.5438C182.75 17.303 182.772 17.0567 182.796 16.8024L182.81 16.6626C182.819 16.57 182.829 16.4775 182.835 16.3868C182.86 15.9939 182.876 15.5965 182.876 15.1932C182.876 15.1093 182.872 15.0279 182.869 14.9647L182.865 14.8777C182.865 14.8419 182.862 14.8042 182.858 14.7681C183.186 14.3128 183.453 13.921 183.624 13.6671L183.766 13.4537C183.787 13.4223 183.806 13.3902 183.824 13.358L183.956 13.33L184.019 12.6121C184.026 12.5393 184.026 12.4661 184.022 12.3932L184.059 11.7432L183.825 11.7309L183.546 11.1257V10.2934C183.546 7.6957 182.514 5.2044 180.677 3.36755C178.84 1.53071 176.349 0.498779 173.751 0.498779C171.153 0.498779 168.662 1.53071 166.825 3.36755C164.989 5.2044 163.957 7.6957 163.957 10.2934V11.5771L163.813 12.0153C163.759 12.1754 163.732 12.3438 163.736 12.5129C163.737 12.5898 163.731 12.6667 163.717 12.7425C163.685 12.9506 163.697 13.1633 163.752 13.3666C163.807 13.5699 163.905 13.7592 164.039 13.9221L164.756 14.8117L164.855 14.9306V14.9418C164.85 15.0257 164.846 15.1082 164.846 15.1935C164.85 15.8221 164.886 16.45 164.955 17.0748L164.983 17.3307C165.055 17.9402 165.161 18.5452 165.3 19.143C165.489 19.9571 165.742 20.7546 166.059 21.5277L157.464 24.7473C157.282 24.816 157.117 24.9225 156.979 25.06L148.762 37.3492C148.572 37.6317 148.489 37.9726 148.528 38.3108C148.556 38.749 148.308 41.7507 148.16 43.5484C147.879 45.684 147.759 47.8376 147.799 49.9912C148.469 53.4871 152.014 53.9345 154.131 54.2016C154.624 54.2438 155.111 54.3291 155.589 54.4567C155.777 54.5306 155.977 54.5652 156.179 54.5583C156.38 54.5515 156.578 54.5034 156.76 54.417L156.772 59.4837H130.663C130.698 59.3372 130.716 59.187 130.716 59.0363V55.3237C130.791 55.3301 130.882 55.3237 130.971 55.3348L131.126 55.3312C134.15 55.197 136.375 51.8353 136.193 47.6755C136.146 46.5082 135.895 45.358 135.451 44.2775V44.2758C135.529 43.0189 135.355 41.7592 134.94 40.5703C134.525 39.3814 133.877 38.287 133.035 37.3512L125.03 25.3013L124.888 25.0955L124.815 25.0549C124.667 24.9108 124.489 24.8008 124.294 24.7328L115.82 21.721C116.139 20.9668 116.399 20.1892 116.599 19.395L116.669 19.1106C116.714 18.9162 116.755 18.719 116.794 18.5177C116.827 18.3401 116.859 18.1625 116.888 17.9801C116.916 17.8092 116.944 17.6373 116.963 17.4664C116.994 17.2351 117.017 17.0018 117.038 16.7647L117.075 16.3491C117.099 15.9676 117.115 15.5831 117.115 15.1932C117.115 15.1093 117.111 15.0279 117.107 14.9647L117.103 14.8777C117.103 14.84 117.1 14.8031 117.097 14.7681C117.281 14.5122 117.449 14.2714 117.602 14.0505L118.004 13.4537C118.025 13.4223 118.044 13.3902 118.062 13.358L118.194 13.33L118.257 12.6121C118.264 12.5393 118.265 12.4661 118.26 12.3932L118.297 11.7432L118.064 11.7309L117.784 11.1257V10.2934C117.784 7.6957 116.752 5.2044 114.915 3.36755C113.079 1.53071 110.587 0.498779 107.99 0.498779C105.392 0.498779 102.901 1.53071 101.064 3.36755C99.2268 5.2044 98.1949 7.6957 98.1949 10.2934V11.5748L98.0456 12.0293C97.9946 12.1859 97.9704 12.3499 97.974 12.5145C97.9759 12.5895 97.9702 12.6645 97.9569 12.7383C97.9233 12.9364 97.9309 13.1393 97.9793 13.3344C98.0278 13.5294 98.1159 13.7124 98.2383 13.8718L98.9934 14.8084L99.0943 14.9303V14.9482C99.0904 15.0285 99.0868 15.1107 99.0868 15.1929C99.0868 15.5962 99.1019 15.9936 99.1282 16.3846C99.134 16.4811 99.1444 16.5765 99.1539 16.6718L99.167 16.8061C99.1897 17.0533 99.2132 17.3008 99.2454 17.5464C99.2633 17.6786 99.2851 17.809 99.3058 17.9379L99.3248 18.052C99.3586 18.255 99.3927 18.4581 99.4341 18.6603C99.4711 18.8454 99.5136 19.0267 99.5572 19.2079C99.5977 19.3818 99.6411 19.5547 99.6872 19.7275C99.7404 19.9219 99.7969 20.1129 99.8573 20.3036C99.9029 20.4507 99.9518 20.5945 100.001 20.7371C100.071 20.9402 100.143 21.1404 100.22 21.3328C100.258 21.4313 100.299 21.5286 100.367 21.688C100.441 21.8608 100.516 22.0328 100.594 22.2009L100.484 22.2141C100.32 22.2132 100.157 22.2427 100.004 22.301L96.9554 23.4787C96.8326 23.5264 96.7171 23.5913 96.6125 23.6714L90.1138 26.1182C89.8161 26.2333 89.564 26.4426 89.3962 26.7142L89.2035 27.0297C89.0494 27.2011 88.9389 27.4072 88.8813 27.6304L80.6283 59.4829H76.6156C76.6318 59.3795 76.64 59.2749 76.6402 59.1702V36.9281C76.6398 36.4152 76.4359 35.9234 76.0732 35.5608C75.7106 35.1981 75.2188 34.9942 74.706 34.9939H72.9362L73.4254 33.3438C73.4581 33.207 73.4789 33.0677 73.4877 32.9274C73.4804 32.0729 73.2479 31.2355 72.8139 30.4995C72.3798 29.7636 71.7594 29.155 71.0152 28.7351C69.5591 27.8425 67.8875 27.363 66.1797 27.3482L65.9305 27.3454C64.3411 27.3259 62.7735 27.7156 61.3783 28.477L59.2685 25.3008L59.1267 25.0977L59.0559 25.058C58.9065 24.9094 58.7246 24.7976 58.5245 24.7314L49.996 21.8667C50.0612 21.7174 50.1274 21.5607 50.1946 21.3955L50.2625 21.233C50.3266 21.0668 50.3853 20.8974 50.4418 20.7248L49.5267 20.4149L50.4946 20.5699C50.5363 20.451 50.576 20.3319 50.6129 20.213C50.6689 20.0326 50.7187 19.8494 50.7679 19.6632C50.814 19.4895 50.8593 19.3158 50.901 19.1363C50.9416 18.9634 50.9782 18.7898 51.0129 18.613C51.0526 18.4111 51.0884 18.2061 51.1365 17.9066C51.1583 17.7762 51.179 17.6442 51.1949 17.5136C51.2271 17.2712 51.2509 17.0245 51.2735 16.777L51.3104 16.372C51.3359 15.9838 51.351 15.5909 51.351 15.1602L51.3404 14.8805C51.3404 14.8439 51.3376 14.8061 51.3339 14.7687C51.8043 14.1173 52.1497 13.5941 52.2415 13.4542C52.3855 13.2274 52.4688 12.9674 52.4834 12.6991L52.4954 12.6009C52.5143 12.3521 52.4696 12.1025 52.3654 11.8758L52.0219 11.1274V10.2934C52.0219 7.6957 50.99 5.2044 49.1531 3.36755C47.3163 1.53071 44.825 0.49878 42.2273 0.49878C39.6296 0.49878 37.1383 1.53071 35.3015 3.36755C33.4646 5.2044 32.4327 7.6957 32.4327 10.2934V11.5748L32.2825 12.0282C32.2316 12.1836 32.2073 12.3465 32.2106 12.5101C32.2125 12.5891 32.2069 12.6681 32.1939 12.7461C32.1612 12.9431 32.1694 13.1446 32.218 13.3383C32.2665 13.5319 32.3544 13.7135 32.4761 13.8718L32.6329 14.072C32.7624 14.2362 32.956 14.4781 33.2309 14.8106L33.3299 14.9286L33.3215 15.1921C33.3215 15.5934 33.3374 15.9892 33.3629 16.381C33.3688 16.4688 33.378 16.5566 33.3867 16.6447L33.399 16.7675C33.4216 17.0278 33.4459 17.2868 33.4801 17.5419C33.4952 17.6537 33.5139 17.7656 33.531 17.8775L33.55 17.9868C33.5858 18.2156 33.6255 18.4421 33.6708 18.667C33.701 18.8219 33.7351 18.973 33.7709 19.1251C33.8201 19.3374 33.873 19.5491 33.9306 19.7569C33.972 19.9079 34.0145 20.0572 34.0581 20.2027C34.1213 20.4085 34.1893 20.6087 34.2791 20.8627C34.3224 20.9866 34.3649 21.1091 34.4122 21.2321C34.4905 21.4341 34.5755 21.6295 34.6617 21.8278L34.7115 21.9442L34.7797 22.1019L24.3438 26.1202C24.1485 26.1958 23.9729 26.3145 23.83 26.4676L23.4352 27.0325C23.2844 27.2019 23.1757 27.4045 23.1177 27.6237L16.5004 52.5054C15.8431 52.9305 15.3013 53.5117 14.9234 54.1973C14.5455 54.8828 14.3432 55.6512 14.3347 56.4339C14.3408 56.6995 14.3725 56.9639 14.4292 57.2235L14.4706 57.4066C14.5359 57.666 14.6252 57.9188 14.7371 58.1617C14.8487 58.3942 14.9787 58.6172 15.1261 58.8288L15.2187 58.9608C15.3529 59.144 15.4987 59.3185 15.655 59.4832H1.87985C1.49531 59.4841 1.12681 59.6374 0.854948 59.9093C0.58309 60.1813 0.430011 60.5499 0.429199 60.9344L0.429199 65.5792C0.430159 65.9636 0.583303 66.332 0.855145 66.6039C1.12699 66.8757 1.49541 67.0288 1.87985 67.0298H28.8015C27.8841 67.7676 27.2182 68.7719 26.8958 69.9042C26.5734 71.0364 26.6103 72.2408 27.0014 73.3512C27.3925 74.4616 28.1185 75.4233 29.0794 76.1035C30.0402 76.7838 31.1885 77.1491 32.3657 77.1491C33.543 77.1491 34.6912 76.7838 35.6521 76.1035C36.6129 75.4233 37.339 74.4616 37.7301 73.3512C38.1212 72.2408 38.1581 71.0364 37.8356 69.9042C37.5132 68.7719 36.8474 67.7676 35.93 67.0298H50.8979C50.0121 67.7399 49.3599 68.6996 49.0258 69.7846C48.6917 70.8697 48.6911 72.0301 49.0241 73.1154C46.9065 71.9621 44.443 71.614 42.0887 72.1354C39.7344 72.6568 37.6482 74.0124 36.2155 75.952C34.7828 77.8916 34.1003 80.2841 34.294 82.6876C34.4877 85.0912 35.5446 87.3435 37.2695 89.0286C38.9943 90.7136 41.2707 91.7177 43.6781 91.8553C46.0855 91.9929 48.4614 91.2547 50.3671 89.7771C52.2727 88.2995 53.5793 86.1823 54.0456 83.8165C54.5119 81.4506 54.1064 78.996 52.904 76.9058C54.1637 77.2684 55.51 77.1836 56.7143 76.6659C57.9185 76.1481 58.9063 75.2294 59.5098 74.0657C60.1133 72.9021 60.2952 71.5653 60.0246 70.2827C59.754 69.0001 59.0477 67.8508 58.0256 67.0301H72.9919C72.075 67.7677 71.4097 68.7716 71.0876 69.9034C70.7655 71.0352 70.8025 72.239 71.1935 73.3488C71.5845 74.4587 72.3103 75.4198 73.2707 76.0997C74.2311 76.7796 75.3789 77.1448 76.5556 77.1448C77.7323 77.1448 78.88 76.7796 79.8404 76.0997C80.8008 75.4198 81.5266 74.4587 81.9176 73.3488C82.3087 72.239 82.3457 71.0352 82.0236 69.9034C81.7015 68.7716 81.0361 67.7677 80.1193 67.0301H95.0855C94.1995 67.74 93.5471 68.6997 93.213 69.7848C92.8789 70.8699 92.8785 72.0304 93.2118 73.1157C91.0941 71.9635 88.6311 71.6165 86.2776 72.1386C83.924 72.6608 81.8389 74.0169 80.4072 75.9565C78.9754 77.8961 78.2939 80.2882 78.4883 82.6911C78.6828 85.0941 79.7401 87.3455 81.465 89.0297C83.19 90.7138 85.466 91.717 87.8729 91.854C90.2798 91.9909 92.655 91.2523 94.5598 89.7747C96.4646 88.297 97.7705 86.18 98.2362 83.8146C98.7019 81.4493 98.2961 78.9953 97.0936 76.9058C98.3532 77.268 99.6993 77.1828 100.903 76.6649C102.107 76.1469 103.095 75.2281 103.698 74.0646C104.301 72.901 104.483 71.5645 104.212 70.2822C103.941 68.9998 103.235 67.8507 102.213 67.0301H117.185C116.268 67.7674 115.603 68.7709 115.281 69.9023C114.959 71.0337 114.996 72.2372 115.387 73.3468C115.777 74.4563 116.503 75.4172 117.463 76.097C118.423 76.7767 119.571 77.1418 120.747 77.1418C121.923 77.1418 123.071 76.7767 124.031 76.097C124.991 75.4172 125.716 74.4563 126.107 73.3468C126.498 72.2372 126.535 71.0337 126.213 69.9023C125.891 68.7709 125.225 67.7674 124.309 67.0301H139.279C138.394 67.741 137.742 68.7012 137.409 69.7863C137.075 70.8714 137.075 72.0316 137.408 73.1168C135.291 71.9619 132.827 71.6121 130.473 72.132C128.118 72.6519 126.03 74.0064 124.596 75.9454C123.162 77.8843 122.478 80.2767 122.671 82.6807C122.863 85.0846 123.919 87.3377 125.644 89.0238C127.368 90.7098 129.644 91.715 132.052 91.8536C134.459 91.9921 136.836 91.2548 138.742 89.7777C140.648 88.3006 141.956 86.1835 142.423 83.8175C142.89 81.4516 142.485 78.9965 141.283 76.9058C142.543 77.2699 143.89 77.1862 145.095 76.669C146.301 76.1517 147.289 75.2328 147.893 74.0686C148.498 72.9044 148.68 71.5669 148.409 70.2837C148.138 69.0004 147.43 67.8507 146.407 67.0301H161.375C160.457 67.7677 159.791 68.772 159.468 69.9043C159.146 71.0366 159.182 72.2411 159.573 73.3517C159.964 74.4622 160.69 75.4241 161.651 76.1044C162.612 76.7848 163.761 77.1502 164.938 77.1502C166.115 77.1502 167.264 76.7848 168.225 76.1044C169.185 75.4241 169.911 74.4622 170.302 73.3517C170.694 72.2411 170.73 71.0366 170.408 69.9043C170.085 68.772 169.419 67.7677 168.501 67.0301H183.464C182.801 67.5618 182.265 68.2355 181.898 69.0016C181.53 69.7677 181.338 70.6066 181.338 71.4564C181.338 72.018 181.422 72.5763 181.588 73.1129C179.47 71.9644 177.008 71.6208 174.656 72.1454C172.305 72.6701 170.223 74.0276 168.794 75.9674C167.365 77.9072 166.686 80.2984 166.883 82.6996C167.079 85.1008 168.137 87.3499 169.862 89.0319C171.587 90.7138 173.862 91.715 176.268 91.8507C178.673 91.9864 181.046 91.2474 182.95 89.7701C184.853 88.2928 186.157 86.1769 186.622 83.813C187.088 81.4491 186.682 78.9968 185.48 76.9086C186.74 77.2701 188.086 77.1843 189.29 76.6657C190.493 76.1471 191.48 75.2279 192.083 74.064C192.686 72.9002 192.867 71.5636 192.596 70.2813C192.324 68.9991 191.618 67.8503 190.595 67.0301H220.121C220.505 67.0296 220.874 66.8767 221.146 66.6047C221.418 66.3328 221.571 65.964 221.571 65.5794V60.9344C221.571 60.5498 221.418 60.1811 221.146 59.9091C220.874 59.6372 220.505 59.4842 220.121 59.4837ZM219.637 65.0965H2.3634V61.4179H219.637V65.0965ZM190.785 71.457C190.785 72.1999 190.565 72.9263 190.152 73.5441C189.74 74.162 189.153 74.6435 188.467 74.928C187.78 75.2124 187.025 75.2868 186.296 75.142C185.568 74.9971 184.898 74.6393 184.373 74.114C183.848 73.5886 183.49 72.9193 183.345 72.1906C183.2 71.4619 183.275 70.7066 183.559 70.0202C183.843 69.3339 184.325 68.7473 184.943 68.3347C185.561 67.922 186.287 67.7019 187.03 67.7021C187.523 67.7015 188.012 67.7983 188.468 67.9868C188.923 68.1752 189.338 68.4518 189.686 68.8006C190.035 69.1494 190.312 69.5635 190.5 70.0194C190.689 70.4752 190.785 70.9637 190.785 71.457ZM168.691 71.457C168.69 72.1985 168.47 72.9232 168.057 73.5395C167.645 74.1557 167.059 74.636 166.374 74.9195C165.689 75.203 164.935 75.2771 164.208 75.1325C163.48 74.9878 162.812 74.6308 162.288 74.1066C161.763 73.5825 161.406 72.9146 161.261 72.1874C161.116 71.4603 161.189 70.7064 161.473 70.021C161.756 69.3357 162.236 68.7497 162.852 68.3369C163.468 67.9242 164.192 67.7033 164.934 67.7021C165.427 67.7014 165.916 67.7979 166.372 67.9863C166.828 68.1747 167.242 68.4512 167.591 68.8C167.94 69.1488 168.217 69.563 168.406 70.019C168.595 70.4749 168.692 70.9636 168.691 71.457H168.691ZM146.597 71.457C146.596 72.1988 146.376 72.9239 145.964 73.5405C145.551 74.1572 144.965 74.6377 144.28 74.9215C143.594 75.2052 142.84 75.2794 142.113 75.1347C141.385 74.99 140.717 74.6329 140.192 74.1085C139.667 73.584 139.31 72.9158 139.165 72.1883C139.02 71.4608 139.093 70.7066 139.377 70.021C139.66 69.3354 140.14 68.7493 140.757 68.3365C141.373 67.9238 142.098 67.703 142.84 67.7021C143.333 67.7014 143.822 67.798 144.278 67.9864C144.734 68.1748 145.149 68.4513 145.498 68.8001C145.847 69.1489 146.123 69.5631 146.312 70.019C146.501 70.4749 146.598 70.9636 146.597 71.457H146.597ZM124.496 71.457C124.494 72.1978 124.273 72.9216 123.861 73.5368C123.448 74.1521 122.862 74.6313 122.178 74.9139C121.493 75.1965 120.74 75.2698 120.013 75.1245C119.287 74.9793 118.62 74.622 118.096 74.0978C117.573 73.5736 117.216 72.906 117.072 72.1794C116.928 71.4527 117.002 70.6997 117.286 70.0153C117.569 69.3309 118.049 68.7459 118.665 68.3342C119.281 67.9225 120.005 67.7025 120.746 67.7021C121.239 67.7018 121.727 67.7988 122.183 67.9874C122.638 68.1761 123.052 68.4528 123.4 68.8016C123.748 69.1503 124.025 69.5644 124.213 70.0201C124.401 70.4758 124.497 70.964 124.496 71.457H124.496ZM102.4 71.457C102.399 72.1992 102.179 72.9246 101.766 73.5415C101.353 74.1583 100.767 74.6389 100.081 74.9223C99.3946 75.2058 98.6399 75.2795 97.9121 75.134C97.1842 74.9886 96.5159 74.6305 95.9915 74.1052C95.4672 73.5798 95.1105 72.9108 94.9664 72.1827C94.8224 71.4545 94.8975 70.7001 95.1823 70.0146C95.4671 69.3292 95.9488 68.7437 96.5665 68.332C97.1841 67.9204 97.9099 67.7012 98.6522 67.7021C99.1449 67.7021 99.6329 67.7992 100.088 67.988C100.543 68.1768 100.957 68.4535 101.305 68.8022C101.653 69.151 101.929 69.565 102.117 70.0206C102.305 70.4761 102.401 70.9642 102.4 71.457H102.4ZM80.3058 71.457C80.3053 72.1992 80.0847 72.9246 79.6719 73.5415C79.259 74.1583 78.6726 74.6389 77.9866 74.9223C77.3006 75.2058 76.546 75.2795 75.8181 75.134C75.0903 74.9886 74.4219 74.6305 73.8976 74.1052C73.3733 73.5798 73.0165 72.9108 72.8725 72.1827C72.7284 71.4545 72.8036 70.7001 73.0884 70.0146C73.3732 69.3292 73.8549 68.7437 74.4725 68.332C75.0901 67.9204 75.816 67.7012 76.5582 67.7021C77.051 67.7021 77.539 67.7992 77.9942 67.9879C78.4494 68.1767 78.863 68.4534 79.2111 68.8021C79.5593 69.1509 79.8352 69.5649 80.0231 70.0205C80.2111 70.476 80.3073 70.9642 80.3064 71.457H80.3058ZM58.2119 71.457C58.2114 72.1992 57.9907 72.9246 57.5779 73.5415C57.1651 74.1583 56.5786 74.6389 55.8926 74.9223C55.2067 75.2058 54.452 75.2795 53.7242 75.134C52.9963 74.9886 52.328 74.6305 51.8037 74.1052C51.2793 73.5798 50.9226 72.9108 50.7785 72.1827C50.6345 71.4545 50.7096 70.7001 50.9944 70.0146C51.2792 69.3292 51.7609 68.7437 52.3786 68.332C52.9962 67.9204 53.722 67.7012 54.4643 67.7021C54.9571 67.702 55.4451 67.7991 55.9004 67.9879C56.3556 68.1766 56.7692 68.4533 57.1173 68.802C57.4655 69.1508 57.7415 69.5649 57.9294 70.0204C58.1174 70.476 58.2137 70.9642 58.2127 71.457H58.2119ZM36.1179 71.457C36.1174 72.1989 35.897 72.924 35.4845 73.5407C35.072 74.1574 34.4859 74.638 33.8004 74.9217C33.1148 75.2053 32.3606 75.2794 31.6329 75.1346C30.9053 74.9897 30.2369 74.6324 29.7123 74.1078C29.1877 73.5832 28.8303 72.9148 28.6855 72.1871C28.5406 71.4595 28.6147 70.7052 28.8984 70.0197C29.1821 69.3341 29.6626 68.7481 30.2793 68.3356C30.896 67.9231 31.6211 67.7026 32.3631 67.7021C32.8564 67.7014 33.345 67.7981 33.8009 67.9865C34.2569 68.175 34.6711 68.4515 35.02 68.8003C35.3689 69.1491 35.6455 69.5633 35.8341 70.0192C36.0226 70.4751 36.1193 70.9637 36.1188 71.457H36.1179ZM17.9038 53.8937L18.004 53.8408C18.1119 53.776 18.1905 53.6717 18.2229 53.55L24.9482 28.2639L24.9538 28.2555L25.1926 27.8653L27.6067 26.9343L28.639 26.5355L32.9179 44.3505C32.4264 45.3025 32.1742 46.3598 32.183 47.4311C32.2878 49.3709 32.7591 58.1181 32.9121 60.45H28.5828L27.8537 49.8846C27.8461 49.77 27.798 49.6618 27.718 49.5793C27.6379 49.4969 27.5312 49.4457 27.4168 49.4348C27.3024 49.4239 27.1879 49.454 27.0937 49.5198C26.9995 49.5857 26.9318 49.6828 26.9028 49.794L25.882 53.6322C25.8575 53.7236 25.8604 53.8202 25.8902 53.91C25.92 53.9998 25.9755 54.0789 26.0498 54.1376C26.3957 54.3788 26.683 54.6948 26.8903 55.0621C27.0976 55.4294 27.2196 55.8386 27.2473 56.2594C27.2191 56.7823 27.0549 57.2887 26.771 57.7286C26.4871 58.1686 26.0933 58.5269 25.6286 58.7681C25.5229 58.8341 25.4001 58.885 25.2885 58.9454C26.1029 58.2722 26.6304 57.3142 26.7638 56.2661C26.7431 54.6589 24.5292 53.3506 21.8301 53.3506H21.8279L21.7194 53.3525C20.4638 53.3422 19.229 53.6726 18.1463 54.3084C17.7585 54.5139 17.428 54.8128 17.1846 55.178C16.9413 55.5433 16.7927 55.9634 16.7524 56.4004C16.8489 57.0128 17.088 57.5939 17.4502 58.097C17.8124 58.6002 18.2878 59.0112 18.8379 59.2969C18.1701 59.1268 17.5684 58.7606 17.1106 58.2455C16.6527 57.7304 16.3595 57.09 16.2689 56.4068C16.2984 55.8816 16.4649 55.3732 16.7519 54.9323C17.0389 54.4914 17.4363 54.1333 17.9047 53.8937H17.9038ZM34.1295 12.8482C34.139 12.752 34.1446 12.6546 34.1446 12.5582L34.3431 11.9594C34.3584 11.9105 34.3664 11.8596 34.3666 11.8084V10.2934C34.3666 8.20868 35.1948 6.20935 36.6689 4.73524C38.143 3.26113 40.1423 2.43298 42.227 2.43298C44.3117 2.43298 46.3111 3.26113 47.7852 4.73524C49.2593 6.20935 50.0874 8.20868 50.0874 10.2934V11.4456C50.0874 11.5157 50.1026 11.585 50.1319 11.6487L50.5369 12.5243C49.5995 14.0536 48.4421 15.4365 47.102 16.6288C45.7526 17.1832 44.2969 17.4309 42.8401 17.3539V17.3539C41.1459 17.3954 39.4573 17.1434 37.8491 16.6089C36.4231 15.5541 35.1685 14.2856 34.1295 12.8482V12.8482ZM48.4103 41.669C41.7323 41.7031 37.6692 41.7529 36.2877 41.8145L32.2808 25.1305L34.3224 24.3426L34.6228 24.2266L39.7229 29.9402C39.7671 29.9903 39.8214 30.0306 39.8822 30.0584C39.943 30.0863 40.009 30.1011 40.0758 30.1019C40.1429 30.1066 40.2101 30.0956 40.2721 30.0696C40.3342 30.0437 40.3892 30.0036 40.4329 29.9525L42.3652 27.9277L44.3268 29.6617C44.3769 29.7051 44.4352 29.7381 44.4983 29.7585C44.5614 29.779 44.6279 29.7866 44.694 29.7808C44.7601 29.7745 44.8241 29.7547 44.8822 29.7225C44.9402 29.6903 44.991 29.6465 45.0313 29.5937L49.487 23.7589L50.0715 23.9309L52.7586 24.834L48.4103 41.669ZM35.5955 23.8638L36.6647 23.4723C37.2419 24.4186 38.0316 25.2174 38.9712 25.8054C39.9109 26.3934 40.9745 26.7545 42.078 26.8599C42.0452 26.8771 42.0148 26.8984 41.9874 26.9231L40.0948 28.9054L35.5955 23.8638ZM35.2725 15.6695C35.8937 16.4046 36.64 17.0242 37.4768 17.4997C39.2017 18.0884 41.0172 18.3666 42.8392 18.3213V18.3213C44.456 18.3856 46.0674 18.0982 47.5623 17.479C48.268 16.9926 48.8889 16.3933 49.4 15.7053C49.2216 21.3776 46.1279 25.9116 42.3358 25.9116C38.5385 25.9113 35.4389 21.3583 35.2725 15.6692V15.6695ZM48.1544 23.2455C48.215 23.3405 48.3073 23.4108 48.415 23.444L48.4936 23.4667L44.5782 28.5939L42.6572 26.8949C42.6379 26.8818 42.6177 26.8701 42.5968 26.8599C43.744 26.7434 44.8468 26.3546 45.8135 25.7259C46.7802 25.0972 47.5827 24.2467 48.1544 23.2452V23.2455ZM48.6857 22.5167C48.6581 22.5116 48.63 22.5091 48.6018 22.5091C48.6304 22.5089 48.659 22.5114 48.6871 22.5164L48.6857 22.5167ZM35.4392 42.4325C35.45 42.4964 35.4741 42.5573 35.5099 42.6113C35.5456 42.6653 35.5923 42.7112 35.6469 42.746C35.7166 42.7882 35.7963 42.811 35.8777 42.812C35.9205 42.8121 35.9631 42.8058 36.0041 42.7933C36.5103 42.7214 43.9257 42.6591 48.785 42.6345C48.892 42.634 48.9959 42.598 49.0803 42.5322C49.1647 42.4665 49.2249 42.3745 49.2515 42.2709L53.6675 25.1693L55.2241 25.6811L53.1826 34.1809L53.1599 34.2877L53.1384 34.3942L53.1325 34.4222C53.0609 34.7754 52.9314 35.4374 52.8528 35.9464L52.8509 35.9598H52.8321L52.4543 35.9615C52.1988 35.9631 51.9543 36.0656 51.7741 36.2468C51.594 36.428 51.4929 36.6731 51.4928 36.9286V59.1716C51.4927 59.2987 51.5177 59.4244 51.5663 59.5418C51.6148 59.6592 51.6861 59.7658 51.7759 59.8556C51.8657 59.9455 51.9723 60.0167 52.0897 60.0653C52.2071 60.1138 52.3329 60.1388 52.4599 60.1387H63.9194L63.9666 60.4514H33.8778C33.8646 60.238 33.8456 59.9508 33.8249 59.6004C33.8193 59.4919 33.8118 59.368 33.8042 59.2491L33.788 58.9694C33.7804 58.843 33.772 58.7032 33.7645 58.5661L33.7474 58.2764L33.7172 57.745L33.706 57.5428C33.6842 57.1633 33.6616 56.7598 33.6378 56.3403L33.6361 56.3089C33.6135 55.902 33.5897 55.48 33.5662 55.0454L33.5606 54.9556C33.5114 54.0668 33.4605 53.133 33.4093 52.1941C33.3366 50.8822 33.2647 49.5622 33.1996 48.3448C33.1817 48.0245 33.1657 47.711 33.1487 47.4079C33.1416 46.4462 33.3837 45.499 33.8515 44.6587C33.9116 44.5519 33.9291 44.4263 33.9004 44.3072L29.5485 26.1845L31.3694 25.482L35.4392 42.4325ZM57.7501 26.5115L60.6156 30.8257C60.6554 30.8858 60.7083 30.9362 60.7703 30.9732C60.8322 31.0101 60.9017 31.0326 60.9736 31.039C61.0455 31.0455 61.1179 31.0359 61.1857 31.0109C61.2534 30.9859 61.3147 30.9461 61.3651 30.8945C62.6166 29.7833 64.2519 29.2036 65.9238 29.2785L66.1495 29.2813C67.4943 29.2886 68.8119 29.6605 69.9622 30.3572C70.424 30.6031 70.8136 30.9652 71.0925 31.4078C71.3714 31.8503 71.5301 32.358 71.5527 32.8807C71.3399 33.9275 71.0501 34.9571 70.6857 35.9612H69.0236C65.7437 35.9008 56.8983 35.9386 53.6636 35.9548C53.8527 35.5688 54.006 35.1662 54.1217 34.7522H54.2C54.2158 34.6441 54.2388 34.5371 54.2688 34.432C54.2954 34.3517 54.3217 34.2706 54.3491 34.1904C54.4006 34.0581 54.4648 33.9312 54.5409 33.8114H54.2671L56.1501 25.9728L57.7501 26.5115ZM73.0537 37.894L63.5843 47.3659L54.1052 37.8868C57.6204 37.8689 65.8304 37.8367 69.0074 37.8952L73.0537 37.894ZM73.7375 38.5778V57.5191L64.2667 48.0486L73.7375 38.5778ZM62.8994 48.0486L53.4287 57.5191V38.579L62.8994 48.0486ZM63.5829 48.7321L73.0537 58.2029H54.1139L63.5829 48.7321ZM17.717 56.3867C17.7095 55.7927 18.3742 55.3063 18.6615 55.1259C19.5919 54.5854 20.6512 54.3067 21.7272 54.3194L21.831 54.3174C24.0862 54.3174 25.7919 55.9496 25.8023 56.875C25.811 57.4701 24.9015 58.2633 24.6142 58.4448C23.6444 58.9575 22.5573 59.2075 21.461 59.17C20.6155 59.1937 19.7867 58.9322 19.1079 58.4275C18.4292 57.9228 17.9402 57.2043 17.7195 56.3878L17.717 56.3867ZM26.1477 59.5847C26.6551 59.2723 27.1034 58.8727 27.4716 58.4042L27.6115 60.4508H24.1257C24.8393 60.2652 25.5209 59.9732 26.1477 59.5847ZM27.1562 53.835C27.0742 53.7491 26.9884 53.6672 26.8955 53.5833L27.0882 52.8589L27.1562 53.835ZM90.7157 28.2555L90.9557 27.8653L93.5888 26.8493H93.5907L94.4045 26.5489L98.6793 44.3522C98.1905 45.296 97.9383 46.3444 97.9443 47.4073V57.0431C97.9443 57.304 98.1334 58.2406 98.5291 60.1127L98.6007 60.4517H94.2865L93.6153 49.8874C93.6079 49.7733 93.5603 49.6655 93.481 49.5832C93.4016 49.5009 93.2956 49.4495 93.1818 49.438C93.0687 49.4289 92.9559 49.4588 92.8621 49.5227C92.7683 49.5866 92.6991 49.6807 92.6661 49.7893L89.7195 60.4508H82.3709L90.7121 28.2622L90.7157 28.2555ZM97.1464 25.5385L101.202 42.4323C101.679 42.3979 102.153 42.3258 102.618 42.2169H105.571V59.0349C105.571 59.2914 105.673 59.5373 105.854 59.7187C106.035 59.9001 106.281 60.002 106.538 60.002H124.495V60.4494H99.5877C99.5547 60.2953 99.5189 60.1197 99.4736 59.91C99.294 59.06 98.9201 57.2942 98.9106 57.0408V47.4065C98.9035 46.4448 99.1456 45.4976 99.6134 44.6573C99.6735 44.5505 99.691 44.4249 99.6623 44.3058L95.3213 26.2248L97.1464 25.5385ZM99.892 12.849C99.9012 12.752 99.9068 12.6532 99.9068 12.5573L100.103 11.9594C100.119 11.9108 100.127 11.8597 100.127 11.8084V10.2934C100.127 8.20868 100.955 6.20935 102.429 4.73524C103.904 3.26113 105.903 2.43298 107.988 2.43298C110.072 2.43298 112.072 3.26113 113.546 4.73524C115.02 6.20935 115.848 8.20868 115.848 10.2934V11.4456C115.848 11.5157 115.863 11.585 115.892 11.6487L116.299 12.5257C115.362 14.055 114.204 15.4379 112.863 16.6302C111.514 17.1847 110.058 17.4324 108.601 17.3553V17.3553C106.907 17.3963 105.218 17.1438 103.61 16.6089C102.185 15.5538 100.931 14.2857 99.892 12.849V12.849ZM129.542 35.5862C129.799 35.8744 130.03 36.1848 130.232 36.5136V36.5457C130.26 36.5855 130.295 36.6193 130.322 36.659L130.363 36.7261C130.646 37.2144 130.93 37.6997 131.199 38.1947V38.0828L131.431 38.4321C133.744 41.716 133.64 43.4564 133.552 43.9097C133.53 44.0233 133.501 44.1271 133.455 44.2895C133.423 44.4049 133.435 44.5281 133.489 44.6352C133.96 45.6123 134.222 46.6769 134.259 47.7611C134.388 50.6604 133.137 53.0273 131.379 53.3606C131.409 53.296 131.425 53.2254 131.425 53.154V52.8517C132.861 52.452 133.889 50.3066 133.777 47.7821C133.645 44.7731 132.054 42.9108 130.636 42.9108C130.325 42.9271 130.021 43.0167 129.75 43.1723V36.7921C129.75 36.6651 129.726 36.5393 129.677 36.422C129.628 36.3046 129.557 36.198 129.467 36.1081C129.377 36.0183 129.271 35.9471 129.153 35.8985C129.036 35.8499 128.91 35.825 128.783 35.825H119.38L121.913 25.9728L123.513 26.5112L129.542 35.5862ZM130.496 53.3469C130.233 53.2912 129.981 53.194 129.749 53.0589V52.48C129.962 52.6413 130.202 52.7643 130.457 52.8435V53.157C130.457 53.2226 130.47 53.2875 130.496 53.3478V53.3469ZM154.374 52.2817C152.472 52.0417 150.105 51.7425 149.7 49.6287C149.634 49.2246 149.897 46.0352 150.089 43.7053C150.323 40.8608 150.473 38.9842 150.46 38.2873L158.283 26.5103L159.869 25.9779L161.048 31.8976C159.872 32.321 158.833 33.0542 158.04 34.0198C157.253 34.9107 156.702 35.9843 156.436 37.1428C156.293 37.5985 156.277 38.0844 156.389 38.5486C156.502 39.0127 156.738 39.4376 157.073 39.7779C157.462 40.0959 157.954 40.2611 158.457 40.2424C159.634 40.0951 160.742 39.6044 161.643 38.8315C161.653 39.1998 161.662 39.6551 161.664 40.25V59.0349C161.666 59.2003 161.711 59.3624 161.794 59.5051C161.878 59.6479 161.997 59.7664 162.141 59.849C162.149 60.0755 162.159 60.2769 162.169 60.4506H158.709L158.667 42.2631C158.666 42.1427 158.621 42.0268 158.54 41.9379C158.459 41.849 158.347 41.7936 158.228 41.7823C158.107 41.7682 157.986 41.801 157.889 41.8739C157.792 41.9468 157.728 42.0543 157.708 42.1738L155.752 52.4965C155.354 52.4067 154.886 52.3477 154.374 52.2825V52.2817ZM165.654 12.8482C165.663 12.7511 165.669 12.6524 165.67 12.5565L165.866 11.9585C165.882 11.9098 165.89 11.8588 165.89 11.8075V10.2934C165.89 8.20868 166.718 6.20935 168.192 4.73524C169.667 3.26113 171.666 2.43298 173.751 2.43298C175.835 2.43298 177.835 3.26113 179.309 4.73524C180.783 6.20935 181.611 8.20868 181.611 10.2934V11.4456C181.611 11.5157 181.626 11.585 181.656 11.6487L182.062 12.5243C181.124 14.0536 179.966 15.4365 178.626 16.6288C177.276 17.1833 175.82 17.431 174.363 17.3539C172.669 17.3953 170.98 17.1433 169.372 16.6089C167.947 15.5538 166.693 14.2857 165.654 12.849V12.8482ZM196.49 48.59C196.405 49.4514 196.147 50.2866 195.73 51.0455C195.314 51.8044 194.749 52.4714 194.069 53.0063C193.221 53.5217 192.227 53.7459 191.24 53.6448C190.848 53.6169 190.458 53.5608 190.074 53.477L189.956 53.0701L189.27 48.413H189.268L188.362 42.2499C188.347 42.1284 188.285 42.0177 188.189 41.9408C188.094 41.8639 187.973 41.8267 187.85 41.8371C187.729 41.8456 187.615 41.8995 187.531 41.9883C187.448 42.0771 187.401 42.194 187.4 42.3159L187.242 60.4517H185.401V59.8255C185.534 59.7407 185.643 59.6241 185.72 59.4863C185.797 59.3485 185.839 59.1938 185.841 59.036V40.7654C185.852 40.0606 185.858 39.5858 185.86 39.2272C186.283 39.5025 186.771 39.6594 187.275 39.6817C187.778 39.704 188.279 39.5908 188.724 39.3539C189.056 39.0642 189.311 38.6965 189.466 38.2839C189.621 37.8713 189.671 37.4266 189.612 36.9899C189.496 35.74 189.041 34.5453 188.297 33.5343C187.981 33.0866 187.619 32.673 187.218 32.2998C187.101 32.0934 186.946 31.9113 186.761 31.7634L187.712 26.6815L190.782 27.8433L191.023 28.1587V28.1607L196.362 48.1124L196.49 48.59ZM161.005 26.733L161.056 26.7179L160.781 25.5732V25.5693L162.327 24.9895L162.36 25.1014L162.351 25.1042L164.713 34.7824C164.703 34.8886 164.698 34.9952 164.699 35.1018C164.699 35.1801 164.699 35.2976 164.693 35.3776C164.483 35.4256 164.275 35.4855 164.072 35.5571C164.134 35.2811 164.178 34.9997 164.225 34.6985L164.24 34.6004C164.34 34.1708 164.331 33.7233 164.215 33.2978C164.099 32.8724 163.88 32.4824 163.576 32.1628C163.185 31.8449 162.692 31.6798 162.188 31.6982C162.126 31.6982 162.061 31.7094 161.997 31.7133L161.005 26.733ZM183.765 25.3956L182.44 32.1586C182.192 32.6286 182.084 33.1599 182.129 33.6895C182.107 33.7149 182.086 33.7337 182.061 33.765C182.083 33.787 182.1 33.8138 182.11 33.8433L181.722 35.8228L181.658 35.8248H165.961L163.617 26.2231L163.655 26.2145L163.307 24.9C163.389 24.8706 163.461 24.8193 163.517 24.7518L166.531 23.7394L171.001 29.5929C171.042 29.6455 171.093 29.6893 171.151 29.7215C171.209 29.7537 171.273 29.7736 171.339 29.78C171.405 29.7863 171.472 29.779 171.535 29.7586C171.598 29.7381 171.657 29.7048 171.707 29.6608L173.793 27.808L175.411 29.912C175.454 29.9681 175.509 30.0142 175.572 30.0468C175.634 30.0795 175.704 30.098 175.774 30.101C175.845 30.1045 175.915 30.0923 175.981 30.0651C176.046 30.038 176.104 29.9967 176.151 29.9441L181.356 24.2786L183.742 25.1805L183.694 25.378L183.765 25.3956ZM185.611 31.0623C184.981 30.8148 184.283 30.8054 183.646 31.0357L184.721 25.5505L186.612 26.2654L186.571 26.4332C186.636 26.4586 186.697 26.4891 186.761 26.5171L185.886 31.1876C185.796 31.1414 185.704 31.0999 185.609 31.0634L185.611 31.0623ZM163.576 38.7638L172.881 48.0998L163.596 57.3848V40.2477C163.595 39.6235 163.585 39.1484 163.574 38.7649L163.576 38.7638ZM181.695 37.757C182.307 37.7335 182.824 37.7251 183.261 37.7232L173.568 47.4157L163.975 37.792C164.211 37.7732 164.514 37.7581 164.921 37.7581L181.695 37.757ZM173.565 48.785L182.817 58.0669H164.28L173.565 48.785ZM174.249 48.1003L183.926 38.4257C183.931 38.8329 183.931 39.3276 183.908 40.747V57.7903L174.249 48.1003ZM167.286 23.1339L167.842 22.9241C168.393 23.9744 169.187 24.878 170.157 25.5602C171.128 26.2423 172.247 26.6833 173.422 26.8465L171.454 28.5928L167.286 23.1339ZM179.464 23.5646L180.381 23.9103L175.828 28.8682L174.274 26.8482C175.329 26.7204 176.342 26.3595 177.239 25.7915C178.137 25.2235 178.897 24.4628 179.464 23.5646V23.5646ZM180.925 15.7058C180.891 18.1543 180.205 20.5496 178.939 22.6456C178.893 22.6925 178.858 22.7484 178.834 22.8098V22.8117C178.328 23.7012 177.608 24.4505 176.74 24.9918C175.871 25.5331 174.882 25.8495 173.86 25.9121C170.062 25.9121 166.961 21.3583 166.795 15.6689C167.417 16.404 168.163 17.0239 168.999 17.5002C170.724 18.0891 172.54 18.3673 174.363 18.3219C175.98 18.3859 177.592 18.0982 179.088 17.4787C179.793 16.992 180.414 16.3928 180.925 15.705V15.7058ZM162.187 32.6678C162.46 32.6517 162.729 32.7349 162.946 32.9019C163.116 33.1183 163.235 33.3707 163.293 33.6399C163.351 33.9091 163.347 34.1881 163.281 34.4555L163.266 34.5528C163.217 35.0543 163.094 35.5458 162.903 36.0119C162.529 36.0716 162.191 36.2669 161.952 36.5604C161.713 36.854 161.591 37.2253 161.609 37.6032C160.751 38.4677 159.651 39.0513 158.454 39.2767C158.182 39.2925 157.914 39.21 157.699 39.0443C157.503 38.8106 157.372 38.5306 157.316 38.2312C157.26 37.9318 157.283 37.6232 157.381 37.335C157.618 36.3397 158.096 35.4177 158.773 34.6501C159.604 33.5632 160.832 32.85 162.188 32.667L162.187 32.6678ZM184.432 60.0031V60.4506H163.138C163.129 60.3202 163.121 60.1709 163.113 60.0031H184.432ZM183.802 35.7943C183.778 35.7641 183.755 35.7383 183.732 35.7056C183.663 35.5809 183.594 35.4539 183.534 35.3258L183.453 35.12C183.409 35.0048 183.358 34.8725 183.295 34.7327C183.274 34.6686 183.261 34.6071 183.24 34.5439C183.16 34.1861 183.136 33.8182 183.17 33.4532L183.267 32.9612C183.34 32.6892 183.479 32.4394 183.672 32.2341C183.91 32.0588 184.187 31.9432 184.479 31.8969C184.771 31.8506 185.07 31.8749 185.35 31.9678C185.309 32.0056 185.27 32.0473 185.225 32.0831C186.14 32.5525 186.923 33.2434 187.503 34.0928V34.0928C188.144 34.9566 188.538 35.9788 188.643 37.0497C188.687 37.3223 188.667 37.6013 188.583 37.8645C188.5 38.1277 188.356 38.3678 188.164 38.5655C187.982 38.6852 187.768 38.7451 187.551 38.7367C186.935 38.6941 186.345 38.4751 185.851 38.1058C185.846 37.8166 185.84 37.4757 185.84 36.793C185.84 36.5486 185.747 36.3135 185.581 36.1345C185.415 35.9555 185.187 35.8459 184.943 35.8276C184.943 35.8276 184.536 35.8004 183.802 35.7943ZM105.571 36.7935V37.2969C105.613 38.0412 105.613 38.7872 105.571 39.5315V41.2504H102.114C102.002 41.0596 101.878 40.8328 101.747 40.559C101.633 40.321 100.276 34.6639 100.277 34.4342L98.0596 25.1979L100.47 24.3082L105.689 29.9464C105.733 29.994 105.786 30.0323 105.846 30.0589C105.905 30.0855 105.969 30.0999 106.034 30.1013C106.1 30.1041 106.165 30.0929 106.225 30.0685C106.286 30.044 106.341 30.0069 106.386 29.9595L108.304 28.0443L110.084 29.6575C110.134 29.7025 110.192 29.7367 110.255 29.758C110.319 29.7793 110.386 29.7871 110.453 29.7811C110.519 29.775 110.584 29.7552 110.643 29.7228C110.701 29.6905 110.753 29.6463 110.793 29.5932L115.263 23.7405L118.514 24.8312L116.162 33.4065L116.154 33.4593C115.902 34.2651 115.601 35.0548 115.253 35.8242H106.539C106.411 35.8241 106.286 35.8491 106.168 35.8978C106.051 35.9464 105.944 36.0177 105.854 36.1076C105.764 36.1975 105.693 36.3042 105.645 36.4217C105.596 36.5392 105.571 36.665 105.571 36.7921V36.7935ZM115.164 15.7064C114.986 21.3787 111.89 25.9127 108.1 25.9127C107.079 25.8499 106.09 25.5337 105.221 24.9928C104.353 24.4518 103.633 23.7031 103.127 22.8142V22.8142C103.104 22.7513 103.068 22.694 103.021 22.6464C101.749 20.5397 101.063 18.131 101.035 15.6701C101.657 16.405 102.404 17.0245 103.24 17.5002C104.965 18.089 106.781 18.3672 108.603 18.3219V18.3219C110.22 18.3861 111.832 18.0987 113.328 17.4795C114.033 16.9924 114.653 16.393 115.163 15.705L115.164 15.7064ZM102.495 23.5632C103.091 24.5277 103.913 25.3333 104.889 25.9107C105.865 26.4881 106.966 26.8201 108.099 26.8784C109.319 26.8041 110.5 26.4206 111.531 25.764C112.562 25.1074 113.409 24.1993 113.992 23.1252L114.405 23.2715L110.344 28.5897L108.613 27.0199C108.52 26.9368 108.4 26.8922 108.276 26.8954C108.152 26.8986 108.034 26.9493 107.946 27.037L106.057 28.9222L101.451 23.9469L102.495 23.5632ZM117.662 47.2314L108.191 37.7606H127.132L117.662 47.2314ZM127.816 38.4444V57.3848L118.344 47.9135L127.816 38.4444ZM107.507 38.4444L116.978 47.9149L107.506 57.3848L107.507 38.4444ZM117.662 48.5987L127.132 58.0695H108.189L117.662 48.5987ZM129.75 51.1062V44.4042C129.857 44.2589 129.993 44.1371 130.149 44.0464C130.305 43.9558 130.478 43.8982 130.657 43.8773C131.484 43.8773 132.704 45.3789 132.812 47.8249C132.914 50.1338 131.927 51.9066 130.977 51.9492H130.942C130.693 51.9068 130.456 51.809 130.249 51.6628C130.043 51.5167 129.872 51.326 129.749 51.1048L129.75 51.1062ZM121.006 25.6171L119.046 33.779C119.028 33.8545 118.684 34.9404 118.427 35.8264H116.427C116.664 35.24 116.855 34.6359 116.999 34.0198L119.455 25.0667L120.286 25.3623L121.006 25.6171ZM93.3186 60.4508H90.7224L92.8322 52.8158L93.3186 60.4508ZM44.3125 89.8266C42.7332 89.8258 41.1896 89.3568 39.8769 88.4787C38.5642 87.6006 37.5414 86.3529 36.9378 84.8934C36.3343 83.4339 36.1772 81.8283 36.4863 80.2795C36.7954 78.7307 37.5569 77.3084 38.6745 76.1925C39.792 75.0765 41.2154 74.3171 42.7647 74.0102C44.3139 73.7033 45.9193 73.8627 47.3779 74.4683C48.8365 75.0739 50.0827 76.0985 50.9589 77.4125C51.8352 78.7265 52.302 80.2708 52.3005 81.8501C52.2965 83.9664 51.4533 85.9947 49.9558 87.49C48.4583 88.9854 46.4288 89.8257 44.3125 89.8266V89.8266ZM88.5004 89.8266C86.9212 89.8255 85.3777 89.356 84.0653 88.4777C82.7529 87.5994 81.7304 86.3515 81.1271 84.892C80.5239 83.4325 80.367 81.8269 80.6764 80.2783C80.9857 78.7296 81.7474 77.3075 82.865 76.1918C83.9826 75.076 85.4061 74.3168 86.9552 74.01C88.5044 73.7033 90.1097 73.8628 91.5682 74.4685C93.0267 75.0742 94.2728 76.0988 95.1489 77.4127C96.0251 78.7266 96.4919 80.2708 96.4903 81.8501C96.4871 83.967 95.6438 85.996 94.1456 87.4916C92.6475 88.9871 90.617 89.8269 88.5001 89.8266H88.5004ZM132.7 89.8266C131.12 89.8277 129.575 89.3602 128.261 88.4833C126.947 87.6063 125.923 86.3593 125.318 84.9C124.713 83.4407 124.555 81.8347 124.863 80.2853C125.171 78.7359 125.931 77.3127 127.049 76.1958C128.166 75.0789 129.589 74.3185 131.139 74.0108C132.688 73.7032 134.294 73.8621 135.753 74.4674C137.212 75.0728 138.459 76.0973 139.336 77.4115C140.212 78.7257 140.679 80.2704 140.678 81.8501C140.674 83.9647 139.832 85.9915 138.336 87.4865C136.841 88.9816 134.814 89.823 132.699 89.8266H132.7ZM176.878 89.8266C175.299 89.8237 173.756 89.3529 172.445 88.4735C171.134 87.5941 170.112 86.3457 169.511 84.886C168.909 83.4264 168.753 81.8211 169.063 80.273C169.374 78.7249 170.136 77.3036 171.254 76.1887C172.372 75.0738 173.795 74.3154 175.344 74.0094C176.893 73.7034 178.498 73.8634 179.956 74.4694C181.414 75.0753 182.66 76.0999 183.535 77.4136C184.411 78.7273 184.878 80.2712 184.876 81.8501C184.875 82.899 184.667 83.9374 184.264 84.906C183.861 85.8745 183.272 86.7543 182.529 87.4949C181.786 88.2356 180.905 88.8228 179.935 89.2228C178.965 89.6229 177.926 89.828 176.877 89.8266H176.878Z" fill="#666665"/>
<path d="M220.121 92.9529H1.87985C1.49541 92.9538 1.12699 93.107 0.855145 93.3788C0.583303 93.6507 0.430159 94.0191 0.429199 94.4035L0.429199 99.0491C0.430159 99.4336 0.583303 99.802 0.855145 100.074C1.12699 100.346 1.49541 100.499 1.87985 100.5H220.121C220.505 100.499 220.874 100.346 221.146 100.074C221.418 99.8025 221.571 99.4337 221.571 99.0491V94.4035C221.571 94.0189 221.418 93.6502 221.146 93.3783C220.874 93.1063 220.505 92.9533 220.121 92.9529ZM219.637 98.5656H2.3634V94.8885H219.637V98.5656Z" fill="#666665"/>
<path d="M62.4304 34.7295C63.5063 35.3783 64.7381 35.723 65.9945 35.7268L66.1986 35.7296C68.8449 35.7296 71.0302 34.4462 71.0699 32.868C71.0347 32.4307 70.8909 32.009 70.6517 31.6413C70.4124 31.2735 70.0851 30.9712 69.6996 30.7618C68.6235 30.113 67.3916 29.7684 66.1352 29.7645L65.9394 29.7617H65.9318C63.2853 29.7617 61.1 31.0443 61.0605 32.6213C61.0954 33.059 61.239 33.481 61.4782 33.8491C61.7174 34.2172 62.0446 34.5198 62.4304 34.7295V34.7295ZM65.9262 30.7288L66.1153 30.7316C67.1919 30.7312 68.2485 31.0219 69.1732 31.5731C69.4565 31.7583 70.1168 32.2513 70.1026 32.8442C70.0799 33.7501 68.4064 34.7625 66.2059 34.7625L66.0141 34.7597C64.9372 34.7599 63.8803 34.4691 62.955 33.9182C62.6709 33.7339 62.0106 33.2391 62.026 32.6451C62.0489 31.7412 63.7213 30.7297 65.9279 30.7288H65.9262Z" fill="#666665"/>
<path d="M176.877 75.0139C175.525 75.0157 174.205 75.4181 173.081 76.1704C171.958 76.9227 171.084 77.991 170.568 79.2404C170.052 80.4897 169.917 81.864 170.182 83.1895C170.447 84.5151 171.099 85.7323 172.055 86.6875C173.012 87.6426 174.23 88.2928 175.556 88.5558C176.882 88.8188 178.256 88.6828 179.505 88.165C180.753 87.6473 181.82 86.771 182.571 85.6469C183.322 84.5228 183.722 83.2013 183.722 81.8496C183.722 80.9513 183.544 80.0618 183.2 79.2321C182.856 78.4023 182.351 77.6485 181.716 77.0138C181.08 76.379 180.326 75.8756 179.495 75.5325C178.665 75.1894 177.775 75.0131 176.877 75.0139V75.0139ZM176.877 87.7191C175.717 87.7173 174.583 87.3716 173.619 86.7256C172.655 86.0796 171.904 85.1624 171.461 84.0898C171.018 83.0172 170.903 81.8374 171.131 80.6995C171.358 79.5616 171.918 78.5167 172.739 77.6967C173.56 76.8768 174.606 76.3187 175.744 76.0929C176.882 75.8671 178.062 75.9838 179.134 76.4283C180.206 76.8727 181.122 77.6249 181.767 78.5899C182.411 79.5548 182.755 80.6892 182.755 81.8496C182.755 82.621 182.602 83.3847 182.307 84.0972C182.011 84.8097 181.578 85.4569 181.032 86.0019C180.486 86.547 179.838 86.9792 179.125 87.2738C178.412 87.5684 177.648 87.7197 176.877 87.7191Z" fill="#666665"/>
<path d="M176.877 77.1272C175.943 77.1271 175.03 77.404 174.253 77.9229C173.476 78.4418 172.871 79.1794 172.513 80.0424C172.156 80.9054 172.062 81.855 172.245 82.7712C172.427 83.6874 172.877 84.529 173.537 85.1895C174.198 85.85 175.039 86.2998 175.955 86.4821C176.872 86.6643 177.821 86.5707 178.684 86.2132C179.547 85.8556 180.285 85.2502 180.804 84.4735C181.323 83.6967 181.599 82.7836 181.599 81.8494C181.6 81.2291 181.478 80.6148 181.241 80.0417C181.004 79.4685 180.656 78.9477 180.218 78.5091C179.779 78.0705 179.258 77.7227 178.685 77.4855C178.112 77.2484 177.497 77.1266 176.877 77.1272V77.1272ZM176.877 85.6054C176.134 85.6056 175.408 85.3854 174.79 84.9729C174.173 84.5603 173.691 83.9738 173.407 83.2876C173.122 82.6014 173.048 81.8462 173.193 81.1176C173.337 80.389 173.695 79.7198 174.22 79.1944C174.745 78.6691 175.415 78.3113 176.143 78.1663C176.872 78.0213 177.627 78.0956 178.313 78.3797C178.999 78.6639 179.586 79.1453 179.999 79.7629C180.412 80.3805 180.632 81.1066 180.632 81.8494C180.633 82.3428 180.536 82.8314 180.348 83.2874C180.159 83.7433 179.883 84.1576 179.534 84.5065C179.185 84.8555 178.771 85.1321 178.315 85.3207C177.859 85.5092 177.371 85.606 176.877 85.6054V85.6054Z" fill="#666665"/>
<path d="M132.699 75.0139C131.347 75.0138 130.025 75.4147 128.901 76.1658C127.777 76.9169 126.9 77.9846 126.383 79.2338C125.865 80.483 125.73 81.8576 125.994 83.1837C126.257 84.5099 126.909 85.728 127.865 86.6841C128.821 87.6402 130.039 88.2913 131.365 88.5551C132.691 88.8189 134.066 88.6834 135.315 88.166C136.564 87.6485 137.632 86.7721 138.383 85.6478C139.134 84.5235 139.535 83.2017 139.535 81.8496C139.532 80.0377 138.81 78.3008 137.529 77.0196C136.248 75.7383 134.511 75.0171 132.699 75.0139V75.0139ZM132.699 87.7191C131.538 87.7192 130.404 87.375 129.438 86.7302C128.473 86.0854 127.721 85.1688 127.276 84.0964C126.832 83.024 126.716 81.8439 126.942 80.7053C127.168 79.5668 127.727 78.521 128.548 77.7001C129.369 76.8792 130.415 76.3201 131.553 76.0936C132.692 75.867 133.872 75.9832 134.944 76.4274C136.017 76.8715 136.933 77.6238 137.578 78.5889C138.223 79.5541 138.568 80.6888 138.568 81.8496C138.565 83.4053 137.946 84.8964 136.846 85.9965C135.746 87.0966 134.255 87.716 132.699 87.7191Z" fill="#666665"/>
<path d="M132.699 77.1272C131.765 77.1252 130.851 77.4004 130.073 77.9181C129.295 78.4359 128.688 79.1728 128.329 80.0356C127.97 80.8984 127.875 81.8484 128.056 82.7652C128.237 83.682 128.686 84.5245 129.346 85.186C130.006 85.8475 130.848 86.2983 131.764 86.4813C132.681 86.6643 133.631 86.5713 134.494 86.2141C135.358 85.8569 136.096 85.2515 136.616 84.4745C137.135 83.6975 137.412 82.784 137.412 81.8494C137.41 80.5992 136.913 79.4006 136.03 78.5156C135.147 77.6307 133.95 77.1315 132.699 77.1272V77.1272ZM132.699 85.6054C131.956 85.6075 131.229 85.3889 130.61 84.9775C129.991 84.5661 129.508 83.9803 129.222 83.2942C128.936 82.6081 128.861 81.8527 129.004 81.1235C129.148 80.3943 129.505 79.7241 130.03 79.1978C130.554 78.6715 131.224 78.3128 131.952 78.167C132.681 78.0212 133.437 78.0949 134.124 78.3789C134.811 78.6628 135.398 79.1441 135.811 79.7619C136.224 80.3797 136.445 81.1062 136.445 81.8494C136.443 82.8433 136.049 83.7963 135.347 84.5001C134.645 85.2039 133.693 85.6013 132.699 85.6054V85.6054Z" fill="#666665"/>
<path d="M88.4999 75.0139C87.1479 75.0146 85.8265 75.4161 84.7027 76.1677C83.5789 76.9193 82.7032 77.9873 82.1864 79.2365C81.6695 80.4858 81.5346 81.8602 81.7988 83.1861C82.063 84.512 82.7144 85.7298 83.6707 86.6855C84.6269 87.6412 85.8451 88.2919 87.1711 88.5554C88.4972 88.8188 89.8716 88.6832 91.1205 88.1656C92.3695 87.648 93.4369 86.7717 94.1879 85.6474C94.9389 84.5232 95.3396 83.2016 95.3395 81.8496C95.3374 80.0366 94.616 78.2986 93.3337 77.017C92.0514 75.7354 90.3129 75.015 88.4999 75.0139V75.0139ZM88.4999 87.7191C87.3393 87.7183 86.2049 87.3734 85.2403 86.728C84.2756 86.0827 83.524 85.1658 83.0803 84.0933C82.6367 83.0208 82.521 81.8408 82.7479 80.7026C82.9748 79.5643 83.534 78.5189 84.355 77.6985C85.1759 76.8781 86.2217 76.3194 87.3601 76.0933C88.4984 75.8671 89.6783 75.9835 90.7506 76.4278C91.8228 76.8721 92.7392 77.6243 93.384 78.5894C94.0287 79.5544 94.3729 80.689 94.373 81.8496C94.3713 83.4064 93.7518 84.8989 92.6507 85.9993C91.5495 87.0998 90.0567 87.7183 88.4999 87.7191V87.7191Z" fill="#666665"/>
<path d="M88.5003 77.1272C87.5662 77.1274 86.6532 77.4045 85.8766 77.9236C85.1 78.4426 84.4948 79.1803 84.1375 80.0434C83.7802 80.9064 83.6868 81.856 83.8692 82.7721C84.0516 83.6882 84.5015 84.5296 85.1621 85.19C85.8227 85.8504 86.6643 86.3001 87.5804 86.4822C88.4965 86.6643 89.4461 86.5706 90.309 86.213C91.1719 85.8555 91.9095 85.25 92.4283 84.4733C92.9471 83.6966 93.224 82.7835 93.2239 81.8494C93.2238 81.2292 93.1016 80.6151 92.8642 80.0421C92.6267 79.4691 92.2788 78.9485 91.8401 78.51C91.4015 78.0715 90.8808 77.7237 90.3077 77.4864C89.7347 77.2491 89.1205 77.1271 88.5003 77.1272V77.1272ZM88.5003 85.6054C87.7575 85.6055 87.0313 85.3853 86.4136 84.9727C85.7959 84.5601 85.3144 83.9736 85.0301 83.2874C84.7457 82.6012 84.6713 81.846 84.8161 81.1175C84.9609 80.3889 85.3186 79.7196 85.8437 79.1943C86.3689 78.669 87.0381 78.3112 87.7666 78.1663C88.4952 78.0213 89.2503 78.0956 89.9366 78.3798C90.6229 78.664 91.2095 79.1453 91.6223 79.7629C92.035 80.3805 92.2553 81.1066 92.2554 81.8494C92.2555 82.3426 92.1585 82.831 91.9698 83.2867C91.7811 83.7424 91.5046 84.1565 91.1558 84.5053C90.8071 84.854 90.3931 85.1307 89.9375 85.3195C89.4818 85.5082 88.9935 85.6054 88.5003 85.6054Z" fill="#666665"/>
<path d="M44.3124 75.0139C42.9603 75.0138 41.6385 75.4147 40.5142 76.1658C39.3899 76.9169 38.5136 77.9846 37.9961 79.2338C37.4786 80.483 37.3432 81.8576 37.6069 83.1837C37.8707 84.5099 38.5218 85.728 39.4779 86.6841C40.434 87.6402 41.6521 88.2913 42.9783 88.5551C44.3045 88.8189 45.679 88.6834 46.9282 88.166C48.1774 87.6485 49.2451 86.7721 49.9962 85.6478C50.7474 84.5235 51.1482 83.2017 51.1481 81.8496C51.1463 80.0372 50.4255 78.2996 49.1439 77.0181C47.8624 75.7366 46.1248 75.0158 44.3124 75.0139V75.0139ZM44.3124 87.7191C43.1516 87.7189 42.017 87.3745 41.0519 86.7295C40.0869 86.0845 39.3347 85.1679 38.8906 84.0954C38.4465 83.023 38.3304 81.8429 38.5569 80.7045C38.7835 79.566 39.3425 78.5203 40.1633 77.6996C40.9841 76.8788 42.0299 76.3199 43.1684 76.0935C44.3068 75.8671 45.4869 75.9833 46.5593 76.4275C47.6317 76.8717 48.5483 77.6239 49.1932 78.5891C49.8381 79.5542 50.1824 80.6889 50.1824 81.8496C50.1807 83.4059 49.5617 84.8979 48.4612 85.9983C47.3607 87.0986 45.8687 87.7175 44.3124 87.7191V87.7191Z" fill="#666665"/>
<path d="M44.3126 77.1272C43.3785 77.1273 42.4654 77.4044 41.6888 77.9234C40.9122 78.4425 40.307 79.1801 39.9496 80.0432C39.5923 80.9062 39.4989 81.8558 39.6812 82.7719C39.8635 83.688 40.3134 84.5295 40.974 85.1899C41.6346 85.8503 42.4762 86.3 43.3923 86.4821C44.3085 86.6643 45.258 86.5706 46.121 86.2131C46.9839 85.8555 47.7214 85.2501 48.2403 84.4734C48.7591 83.6966 49.036 82.7835 49.0359 81.8494C49.0358 81.2292 48.9136 80.6151 48.6762 80.0421C48.4388 79.4692 48.0909 78.9486 47.6522 78.5101C47.2136 78.0716 46.693 77.7238 46.1199 77.4865C45.5469 77.2492 44.9328 77.1271 44.3126 77.1272V77.1272ZM44.3126 85.6054C43.5697 85.6055 42.8436 85.3853 42.2259 84.9727C41.6082 84.5601 41.1267 83.9736 40.8424 83.2874C40.558 82.6012 40.4836 81.846 40.6284 81.1175C40.7732 80.3889 41.1308 79.7196 41.656 79.1943C42.1812 78.669 42.8504 78.3112 43.5789 78.1663C44.3075 78.0213 45.0626 78.0956 45.7489 78.3798C46.4352 78.664 47.0218 79.1453 47.4346 79.7629C47.8473 80.3805 48.0676 81.1066 48.0677 81.8494C48.0678 82.3426 47.9708 82.831 47.7821 83.2867C47.5934 83.7424 47.3168 84.1565 46.9681 84.5053C46.6194 84.854 46.2054 85.1307 45.7498 85.3195C45.2941 85.5082 44.8058 85.6054 44.3126 85.6054V85.6054Z" fill="#666665"/>
<path d="M184.435 71.457C184.437 71.9711 184.592 72.473 184.879 72.8992C185.167 73.3255 185.574 73.657 186.05 73.8518C186.526 74.0467 187.048 74.0962 187.552 73.994C188.056 73.8918 188.519 73.6426 188.881 73.2778C189.243 72.9131 189.489 72.4491 189.588 71.9445C189.687 71.4399 189.634 70.9174 189.436 70.443C189.238 69.9685 188.903 69.5634 188.475 69.2788C188.047 68.9942 187.544 68.8429 187.03 68.844C186.688 68.8443 186.349 68.9123 186.033 69.0439C185.717 69.1756 185.43 69.3683 185.189 69.6111C184.948 69.8539 184.757 70.142 184.628 70.4587C184.498 70.7755 184.433 71.1147 184.435 71.457ZM188.671 71.457C188.669 71.7795 188.571 72.0942 188.391 72.3614C188.21 72.6286 187.954 72.8364 187.656 72.9586C187.357 73.0808 187.029 73.1119 186.713 73.0481C186.397 72.9843 186.107 72.8284 185.879 72.6C185.651 72.3716 185.496 72.0809 185.433 71.7645C185.37 71.4481 185.402 71.1202 185.525 70.8221C185.648 70.5239 185.857 70.2688 186.125 70.0889C186.392 69.909 186.707 69.8124 187.03 69.8111C187.246 69.8105 187.46 69.8527 187.66 69.9353C187.859 70.0178 188.041 70.1391 188.193 70.2921C188.346 70.4451 188.467 70.6269 188.549 70.8268C188.631 71.0267 188.672 71.2409 188.671 71.457V71.457Z" fill="#666665"/>
<path d="M162.337 71.457C162.339 71.971 162.494 72.4728 162.781 72.8991C163.069 73.3253 163.476 73.6568 163.952 73.8517C164.427 74.0466 164.95 74.0961 165.454 73.9941C165.958 73.8921 166.42 73.643 166.783 73.2784C167.145 72.9138 167.391 72.45 167.49 71.9455C167.589 71.4411 167.536 70.9186 167.339 70.4441C167.141 69.9696 166.807 69.5644 166.379 69.2796C165.951 68.9948 165.448 68.8432 164.934 68.844C164.592 68.8442 164.253 68.9121 163.937 69.0436C163.621 69.1752 163.334 69.368 163.092 69.6108C162.851 69.8536 162.66 70.1417 162.531 70.4585C162.401 70.7753 162.335 71.1146 162.337 71.457V71.457ZM166.57 71.457C166.567 71.7793 166.469 72.0936 166.289 72.3604C166.108 72.6272 165.852 72.8345 165.553 72.9562C165.255 73.0779 164.927 73.1086 164.611 73.0443C164.296 72.9801 164.006 72.8238 163.779 72.5952C163.551 72.3666 163.397 72.0759 163.335 71.7597C163.272 71.4435 163.305 71.1159 163.429 70.8182C163.552 70.5205 163.761 70.266 164.029 70.0868C164.297 69.9076 164.612 69.8117 164.934 69.8111C165.15 69.8108 165.363 69.8532 165.563 69.936C165.762 70.0187 165.943 70.1401 166.095 70.2931C166.247 70.4461 166.367 70.6278 166.449 70.8275C166.53 71.0273 166.571 71.2412 166.57 71.457V71.457Z" fill="#666665"/>
<path d="M140.236 71.457C140.238 71.9713 140.393 72.4736 140.68 72.9003C140.967 73.327 141.374 73.6591 141.85 73.8545C142.326 74.05 142.849 74.1001 143.353 73.9985C143.857 73.897 144.32 73.6483 144.683 73.2838C145.046 72.9194 145.293 72.4556 145.393 71.951C145.492 71.4464 145.44 70.9235 145.243 70.4485C145.046 69.9735 144.712 69.5675 144.284 69.282C143.856 68.9964 143.354 68.844 142.839 68.844C142.497 68.8437 142.157 68.9112 141.841 69.0426C141.524 69.1739 141.236 69.3665 140.995 69.6093C140.753 69.8522 140.561 70.1404 140.431 70.4575C140.301 70.7745 140.235 71.1142 140.236 71.457V71.457ZM144.475 71.457C144.473 71.78 144.375 72.0953 144.194 72.363C144.014 72.6307 143.757 72.8388 143.458 72.961C143.159 73.0833 142.831 73.1143 142.514 73.05C142.197 72.9858 141.907 72.8292 141.679 72.6C141.451 72.3708 141.296 72.0794 141.234 71.7623C141.172 71.4453 141.205 71.1169 141.329 70.8186C141.453 70.5203 141.663 70.2654 141.931 70.0861C142.2 69.9068 142.516 69.8111 142.839 69.8111C143.055 69.8106 143.269 69.853 143.468 69.9356C143.668 70.0183 143.849 70.1397 144.001 70.2927C144.153 70.4457 144.273 70.6274 144.355 70.8273C144.437 71.0271 144.478 71.2411 144.476 71.457H144.475Z" fill="#666665"/>
<path d="M118.144 71.457C118.146 71.9713 118.3 72.4736 118.587 72.9003C118.874 73.327 119.282 73.6591 119.757 73.8545C120.233 74.05 120.756 74.1001 121.261 73.9985C121.765 73.8969 122.228 73.6482 122.591 73.2837C122.954 72.9193 123.201 72.4555 123.3 71.9508C123.4 71.4462 123.348 70.9233 123.15 70.4483C122.953 69.9733 122.619 69.5674 122.191 69.2818C121.763 68.9963 121.261 68.8439 120.746 68.844C120.403 68.8438 120.064 68.9113 119.748 69.0426C119.431 69.174 119.144 69.3666 118.902 69.6094C118.66 69.8523 118.468 70.1405 118.338 70.4575C118.208 70.7746 118.142 71.1142 118.144 71.457ZM122.382 71.457C122.38 71.78 122.282 72.0953 122.101 72.363C121.92 72.6307 121.664 72.8388 121.365 72.961C121.066 73.0833 120.738 73.1143 120.421 73.05C120.104 72.9858 119.814 72.8292 119.586 72.6C119.358 72.3708 119.203 72.0794 119.141 71.7623C119.079 71.4453 119.112 71.1169 119.236 70.8186C119.36 70.5203 119.57 70.2654 119.838 70.0861C120.107 69.9068 120.423 69.8111 120.746 69.8111C120.962 69.8108 121.176 69.8532 121.375 69.936C121.574 70.0187 121.755 70.1401 121.907 70.2931C122.059 70.4461 122.179 70.6278 122.261 70.8275C122.342 71.0273 122.384 71.2412 122.382 71.457V71.457Z" fill="#666665"/>
<path d="M96.0498 71.457C96.0522 71.9708 96.2067 72.4724 96.4939 72.8985C96.781 73.3246 97.1879 73.6561 97.6633 73.8511C98.1386 74.0462 98.6611 74.0961 99.1648 73.9946C99.6685 73.893 100.131 73.6445 100.493 73.2805C100.856 72.9165 101.103 72.4532 101.202 71.9491C101.302 71.4451 101.25 70.9228 101.053 70.4482C100.856 69.9736 100.523 69.568 100.096 69.2825C99.6687 68.997 99.1665 68.8444 98.6527 68.844C98.31 68.8437 97.9706 68.9112 97.654 69.0426C97.3374 69.1739 97.0499 69.3665 96.8081 69.6093C96.5662 69.8522 96.3747 70.1404 96.2445 70.4575C96.1144 70.7745 96.0482 71.1142 96.0498 71.457ZM100.287 71.457C100.284 71.7799 100.187 72.095 100.006 72.3624C99.8246 72.6299 99.5685 72.8377 99.2695 72.9598C98.9705 73.0818 98.6421 73.1126 98.3256 73.0482C98.0091 72.9838 97.7188 72.8271 97.4913 72.5979C97.2638 72.3687 97.1093 72.0773 97.0472 71.7603C96.9851 71.4434 97.0183 71.1152 97.1425 70.8171C97.2667 70.519 97.4765 70.2644 97.7452 70.0853C98.014 69.9063 98.3298 69.8109 98.6527 69.8111C98.8684 69.8109 99.0819 69.8534 99.281 69.9362C99.4801 70.019 99.6608 70.1404 99.8127 70.2935C99.9646 70.4465 100.085 70.6281 100.166 70.8278C100.247 71.0275 100.288 71.2413 100.287 71.457V71.457Z" fill="#666665"/>
<path d="M73.9561 71.457C73.959 71.97 74.1138 72.4707 74.4008 72.8959C74.6879 73.3211 75.0944 73.6518 75.5691 73.8463C76.0439 74.0408 76.5656 74.0904 77.0685 73.9888C77.5714 73.8873 78.0329 73.6391 78.395 73.2756C78.757 72.9121 79.0034 72.4496 79.1029 71.9463C79.2025 71.443 79.1508 70.9215 78.9544 70.4476C78.758 69.9736 78.4257 69.5684 77.9994 69.283C77.573 68.9976 77.0717 68.8449 76.5587 68.844C76.216 68.8438 75.8766 68.9113 75.5601 69.0426C75.2435 69.174 74.9561 69.3666 74.7142 69.6094C74.4724 69.8523 74.2809 70.1405 74.1508 70.4575C74.0207 70.7746 73.9545 71.1142 73.9561 71.457ZM78.185 71.457C78.182 71.7791 78.0838 72.0932 77.9026 72.3595C77.7214 72.6259 77.4654 72.8326 77.1668 72.9537C76.8682 73.0747 76.5405 73.1046 76.225 73.0396C75.9095 72.9746 75.6202 72.8177 75.3938 72.5885C75.1674 72.3594 75.0139 72.0683 74.9527 71.752C74.8915 71.4357 74.9253 71.1084 75.0499 70.8113C75.1745 70.5142 75.3843 70.2607 75.6528 70.0827C75.9213 69.9047 76.2365 69.8102 76.5587 69.8111C76.7738 69.8114 76.9868 69.8543 77.1852 69.9373C77.3837 70.0204 77.5637 70.142 77.715 70.295C77.8662 70.448 77.9856 70.6295 78.0662 70.8289C78.1469 71.0284 78.1873 71.2418 78.185 71.457Z" fill="#666665"/>
<path d="M51.8604 71.457C51.8632 71.9701 52.0179 72.4709 52.3049 72.8963C52.5919 73.3216 52.9985 73.6525 53.4733 73.8472C53.9481 74.0418 54.4699 74.0915 54.9729 73.9901C55.4759 73.8886 55.9376 73.6405 56.2998 73.277C56.662 72.9135 56.9085 72.4509 57.0082 71.9475C57.1079 71.4442 57.0563 70.9225 56.86 70.4484C56.6637 69.9743 56.3314 69.569 55.905 69.2834C55.4786 68.9979 54.9773 68.845 54.4641 68.844C54.1213 68.8436 53.7818 68.911 53.4651 69.0423C53.1485 69.1736 52.8609 69.3662 52.6189 69.609C52.3769 69.8519 52.1853 70.1401 52.0552 70.4573C51.925 70.7744 51.8588 71.1141 51.8604 71.457V71.457ZM56.0904 71.457C56.0876 71.7793 55.9894 72.0935 55.8081 72.36C55.6269 72.6266 55.3708 72.8335 55.0721 72.9546C54.7734 73.0758 54.4456 73.1058 54.1299 73.0408C53.8142 72.9758 53.5248 72.8187 53.2983 72.5895C53.0717 72.3602 52.9182 72.069 52.857 71.7525C52.7957 71.4361 52.8296 71.1086 52.9544 70.8114C53.0791 70.5142 53.289 70.2605 53.5577 70.0825C53.8264 69.9045 54.1418 69.8101 54.4641 69.8111C54.6793 69.8113 54.8924 69.8541 55.0909 69.9371C55.2895 70.0201 55.4696 70.1416 55.6209 70.2947C55.7722 70.4477 55.8917 70.6292 55.9724 70.8287C56.0531 71.0282 56.0935 71.2418 56.0912 71.457H56.0904Z" fill="#666665"/>
<path d="M29.7686 71.457C29.7715 71.9703 29.9265 72.4713 30.2139 72.8966C30.5012 73.322 30.9082 73.6527 31.3834 73.847C31.8585 74.0413 32.3806 74.0905 32.8837 73.9883C33.3867 73.8862 33.8483 73.6373 34.2101 73.2731C34.5718 72.9088 34.8176 72.4456 34.9163 71.9419C35.0151 71.4381 34.9623 70.9164 34.7648 70.4425C34.5673 69.9687 34.2339 69.564 33.8066 69.2795C33.3793 68.995 32.8773 68.8435 32.3639 68.844C32.0217 68.8442 31.6829 68.9121 31.367 69.0438C31.0511 69.1754 30.7643 69.3681 30.5231 69.6109C30.2819 69.8538 30.0911 70.1419 29.9616 70.4587C29.8321 70.7755 29.7665 71.1147 29.7686 71.457V71.457ZM33.9975 71.457C33.9946 71.7788 33.8965 72.0926 33.7156 72.3588C33.5347 72.625 33.2791 72.8317 32.981 72.953C32.6829 73.0742 32.3555 73.1046 32.0402 73.0402C31.7249 72.9758 31.4356 72.8195 31.2089 72.5911C30.9822 72.3627 30.8281 72.0723 30.7661 71.7565C30.704 71.4406 30.7368 71.1135 30.8603 70.8163C30.9838 70.5191 31.1925 70.2651 31.46 70.0862C31.7276 69.9073 32.0421 69.8116 32.3639 69.8111C32.5795 69.8109 32.793 69.8535 32.9921 69.9363C33.1912 70.0191 33.3719 70.1405 33.5237 70.2936C33.6756 70.4466 33.7957 70.6282 33.877 70.8279C33.9583 71.0275 33.9993 71.2414 33.9975 71.457V71.457Z" fill="#666665"/>
</svg>
