<svg width="134" height="101" viewBox="0 0 134 101" fill="none" xmlns="http://www.w3.org/2000/svg">
<path d="M131.251 100.5H107.566L102.069 86.8914H48.4337L42.9335 100.5H5.50015V68.6414H39.5016C40.1916 68.6372 40.8713 68.4753 41.4879 68.1685L41.8118 68.012L43.9512 68.5129C44.295 68.5967 44.6476 68.6398 45.0017 68.6414H131.251V100.5ZM108.927 98.5096H129.241V70.6336H45.0017C44.4914 70.632 43.9831 70.5707 43.4874 70.4509L42.0346 70.1117C41.2346 70.4536 40.3729 70.6312 39.5016 70.6336H7.50899V98.5111H41.5701L47.0717 84.901H103.43L108.927 98.5096ZM32.6283 88.2912H16.1304C15.5041 88.2836 14.906 88.032 14.4659 87.5908C14.0257 87.1496 13.7788 86.5544 13.7788 85.9343C13.7788 85.3141 14.0257 84.719 14.4659 84.2778C14.906 83.8366 15.5041 83.5849 16.1304 83.5773H32.6283C32.9434 83.5735 33.2561 83.6316 33.5483 83.7484C33.8405 83.8651 34.1064 84.0381 34.3306 84.2573C34.5547 84.4766 34.7327 84.7377 34.8542 85.0256C34.9757 85.3134 35.0382 85.6223 35.0382 85.9343C35.0382 86.2462 34.9757 86.5551 34.8542 86.843C34.7327 87.1308 34.5547 87.392 34.3306 87.6112C34.1064 87.8305 33.8405 88.0035 33.5483 88.1202C33.2561 88.2369 32.9434 88.2951 32.6283 88.2912V88.2912ZM16.1304 85.568C16.0819 85.5675 16.0338 85.5766 15.9889 85.5947C15.944 85.6129 15.9032 85.6397 15.8689 85.6737C15.8346 85.7077 15.8075 85.7481 15.7893 85.7925C15.771 85.837 15.7619 85.8847 15.7624 85.9327C15.7621 86.0297 15.8007 86.1229 15.8697 86.1918C15.9386 86.2608 16.0324 86.2999 16.1304 86.3005H32.6283C32.6779 86.302 32.7272 86.2937 32.7734 86.276C32.8197 86.2583 32.8618 86.2315 32.8974 86.1974C32.933 86.1632 32.9613 86.1223 32.9806 86.0771C33 86.0319 33.0099 85.9833 33.0099 85.9343C33.0099 85.8852 33 85.8366 32.9806 85.7914C32.9613 85.7462 32.933 85.7053 32.8974 85.6712C32.8618 85.637 32.8197 85.6103 32.7734 85.5926C32.7272 85.5748 32.6779 85.5665 32.6283 85.568H16.1304ZM32.6283 82.842H16.1304C15.4993 82.842 14.894 82.5938 14.4477 82.1519C14.0015 81.7101 13.7507 81.1108 13.7507 80.4859C13.7507 79.861 14.0015 79.2618 14.4477 78.8199C14.894 78.3781 15.4993 78.1298 16.1304 78.1298H32.6283C33.2594 78.1298 33.8647 78.3781 34.311 78.8199C34.7573 79.2618 35.008 79.861 35.008 80.4859C35.008 81.1108 34.7573 81.7101 34.311 82.1519C33.8647 82.5938 33.2594 82.842 32.6283 82.842V82.842ZM16.1304 80.1216C16.0344 80.1246 15.9434 80.1644 15.8766 80.2326C15.8098 80.3008 15.7725 80.3921 15.7725 80.4872C15.7725 80.5822 15.8098 80.6735 15.8766 80.7417C15.9434 80.8099 16.0344 80.8497 16.1304 80.8527H32.6283C32.6778 80.8542 32.727 80.8459 32.7732 80.8282C32.8193 80.8105 32.8614 80.7838 32.8969 80.7497C32.9324 80.7156 32.9607 80.6748 32.98 80.6297C32.9993 80.5846 33.0092 80.5361 33.0092 80.4872C33.0092 80.4382 32.9993 80.3897 32.98 80.3446C32.9607 80.2995 32.9324 80.2587 32.8969 80.2246C32.8614 80.1905 32.8193 80.1638 32.7732 80.1461C32.727 80.1284 32.6778 80.1201 32.6283 80.1216H16.1304ZM32.6283 77.3991H16.1304C15.5041 77.3915 14.906 77.1398 14.4659 76.6987C14.0257 76.2575 13.7788 75.6623 13.7788 75.0422C13.7788 74.422 14.0257 73.8268 14.4659 73.3856C14.906 72.9445 15.5041 72.6928 16.1304 72.6852H32.6283C32.9434 72.6814 33.2561 72.7395 33.5483 72.8562C33.8405 72.973 34.1064 73.146 34.3306 73.3652C34.5547 73.5845 34.7327 73.8456 34.8542 74.1334C34.9757 74.4213 35.0382 74.7302 35.0382 75.0422C35.0382 75.3541 34.9757 75.663 34.8542 75.9509C34.7327 76.2387 34.5547 76.4998 34.3306 76.7191C34.1064 76.9383 33.8405 77.1113 33.5483 77.2281C33.2561 77.3448 32.9434 77.4029 32.6283 77.3991V77.3991ZM16.1304 74.6766C16.0326 74.6771 15.9389 74.7159 15.87 74.7846C15.801 74.8533 15.7623 74.9462 15.7624 75.043C15.7618 75.0911 15.7708 75.1389 15.789 75.1835C15.8073 75.2281 15.8343 75.2686 15.8686 75.3027C15.9029 75.3368 15.9437 75.3638 15.9886 75.3821C16.0336 75.4003 16.0818 75.4095 16.1304 75.4091H32.6283C32.6779 75.4106 32.7272 75.4023 32.7734 75.3846C32.8197 75.3668 32.8618 75.3401 32.8974 75.306C32.933 75.2718 32.9613 75.2309 32.9806 75.1857C33 75.1405 33.0099 75.0919 33.0099 75.0429C33.0099 74.9938 33 74.9452 32.9806 74.9C32.9613 74.8548 32.933 74.8139 32.8974 74.7798C32.8618 74.7456 32.8197 74.7189 32.7734 74.7012C32.7272 74.6834 32.6779 74.6751 32.6283 74.6766H16.1304ZM130.246 67.8318H45.001C44.7098 67.83 44.4199 67.7943 44.1371 67.7256L42.8481 67.4236L43.4874 66.2758C43.8665 65.6165 44.0687 64.872 44.0745 64.1134V44.1386H134V64.1134C133.999 65.099 133.603 66.0441 132.899 66.7411C132.196 67.4382 131.241 67.8305 130.246 67.8318V67.8318ZM45.8377 65.8414H130.246C130.708 65.8406 131.152 65.6582 131.479 65.3343C131.805 65.0103 131.989 64.5713 131.99 64.1134V46.1286H46.0855V64.1134C46.0854 64.6981 46.0019 65.2798 45.8377 65.8414V65.8414ZM39.5016 67.8318H3.75807C2.76203 67.831 1.80697 67.4391 1.10243 66.742C0.397894 66.0449 0.00142019 65.0996 0 64.1134L0 4.2191C0.00132541 3.23283 0.397746 2.28735 1.10228 1.59012C1.80682 0.89289 2.76194 0.500843 3.75807 0.5L39.5016 0.5C40.4972 0.501499 41.4515 0.893869 42.1553 1.59106C42.8592 2.28825 43.255 3.23335 43.256 4.2191V64.1134C43.2549 65.099 42.859 66.044 42.1552 66.7411C41.4514 67.4381 40.4971 67.8304 39.5016 67.8318V67.8318ZM3.75807 2.49036C3.29492 2.49064 2.85079 2.67281 2.52313 2.9969C2.19546 3.32099 2.01102 3.76053 2.01026 4.2191V64.1134C2.01111 64.5719 2.19561 65.0113 2.52328 65.3352C2.85094 65.6592 3.29501 65.8412 3.75807 65.8414H39.5016C39.9643 65.8408 40.4079 65.6586 40.735 65.3347C41.0622 65.0107 41.2463 64.5715 41.2469 64.1134V4.2191C41.2465 3.76085 41.0625 3.32146 40.7353 2.99736C40.4081 2.67326 39.9644 2.49093 39.5016 2.49036H3.75807ZM28.5052 59.9942C27.5305 59.9971 26.5677 59.7829 25.688 59.3673C24.8083 58.9517 24.0344 58.3455 23.4235 57.5935C22.8126 56.8416 22.3804 55.9632 22.1589 55.0234C21.9375 54.0836 21.9324 53.1065 22.1441 52.1646C22.3559 51.2226 22.7789 50.3398 23.382 49.5817C23.9851 48.8236 24.7528 48.2096 25.6281 47.7851C26.5034 47.3607 27.464 47.1366 28.4386 47.1296C29.4133 47.1227 30.377 47.3329 31.2585 47.7448L35.9266 46.2026L34.3708 50.8245C34.9383 52.0206 35.1211 53.3605 34.8944 54.6629C34.6678 55.9653 34.0427 57.1674 33.1035 58.1065V58.1065C32.5012 58.7066 31.7846 59.1824 30.9953 59.5064C30.206 59.8304 29.3596 59.9962 28.5052 59.9942V59.9942ZM28.4848 49.1237C27.5988 49.125 26.7331 49.3864 25.9971 49.8748C25.2612 50.3632 24.688 51.0567 24.3501 51.8677C24.0122 52.6786 23.9247 53.5705 24.0987 54.4306C24.2728 55.2908 24.7005 56.0805 25.3278 56.7C26.184 57.509 27.3221 57.9604 28.5057 57.9604C29.6893 57.9604 30.8274 57.509 31.6836 56.7C32.3692 56.0127 32.8105 55.1233 32.941 54.166C33.0715 53.2088 32.8842 52.2354 32.4074 51.3927L32.1903 51.0093L32.7485 49.3528L31.075 49.9054L30.6878 49.6909C30.0144 49.3187 29.256 49.1235 28.4848 49.1237V49.1237ZM12.0047 59.9942C11.0301 59.9971 10.0672 59.7829 9.18755 59.3673C8.30788 58.9517 7.53392 58.3455 6.92302 57.5935C6.31211 56.8416 5.87992 55.9632 5.65846 55.0234C5.437 54.0836 5.43195 53.1065 5.64367 52.1646C5.8554 51.2226 6.27848 50.3398 6.88158 49.5817C7.48467 48.8236 8.25231 48.2096 9.12764 47.7851C10.003 47.3607 10.9635 47.1366 11.9382 47.1296C12.9128 47.1227 13.8766 47.3329 14.758 47.7448L19.4282 46.2054L17.8735 50.8262C18.4411 52.0224 18.6239 53.3623 18.3973 54.6647C18.1706 55.9671 17.5455 57.1692 16.6063 58.1083V58.1083C16.0032 58.7081 15.286 59.1836 14.4962 59.5073C13.7063 59.831 12.8595 59.9965 12.0047 59.9942ZM11.9836 49.1237C11.3986 49.1217 10.8188 49.234 10.2777 49.4542C9.7365 49.6744 9.24451 49.998 8.82985 50.4067C7.98834 51.2419 7.51576 52.3735 7.51576 53.5532C7.51576 54.7329 7.98834 55.8644 8.82985 56.6996C9.6858 57.5089 10.8238 57.9605 12.0074 57.9605C13.191 57.9605 14.329 57.5089 15.185 56.6996C15.8704 56.0122 16.3116 55.1229 16.442 54.1656C16.5725 53.2083 16.3852 52.235 15.9083 51.3923L15.6916 51.0089L16.2491 49.3517L14.5746 49.9051L14.1873 49.6905C13.5137 49.3184 12.755 49.1233 11.9836 49.1237V49.1237ZM12.0069 57.2717C11.2644 57.2714 10.5388 57.0531 9.92165 56.6445C9.3045 56.2358 8.82357 55.6552 8.53965 54.976C8.25572 54.2968 8.18155 53.5495 8.32651 52.8286C8.47147 52.1077 8.82905 51.4455 9.35405 50.9257C10.0689 50.2498 11.0193 49.8727 12.0078 49.8727C12.9962 49.8727 13.9466 50.2498 14.6615 50.9257C15.1861 51.4457 15.5433 52.1079 15.6879 52.8287C15.8325 53.5496 15.7581 54.2967 15.474 54.9757C15.1899 55.6547 14.7089 56.235 14.0918 56.6435C13.4747 57.0519 12.7492 57.27 12.0069 57.2703V57.2717ZM12.0069 51.8289C11.778 51.8282 11.5513 51.8725 11.3399 51.9593C11.1285 52.0461 10.9366 52.1736 10.7754 52.3344H10.7736C10.6114 52.4943 10.4828 52.6843 10.395 52.8935C10.3071 53.1028 10.2619 53.3271 10.2619 53.5537C10.2619 53.7803 10.3071 54.0046 10.395 54.2139C10.4828 54.4231 10.6114 54.6131 10.7736 54.773C11.1061 55.0868 11.5479 55.2619 12.0072 55.2619C12.4666 55.2619 12.9083 55.0868 13.2408 54.773C13.4845 54.5315 13.6503 54.2239 13.7175 53.8891C13.7846 53.5544 13.75 53.2074 13.618 52.8921C13.486 52.5768 13.2626 52.3073 12.9759 52.1176C12.6893 51.928 12.3523 51.8268 12.0076 51.8267L12.0069 51.8289ZM28.5059 57.2685C27.7637 57.2687 27.0381 57.051 26.4209 56.6428C25.8037 56.2346 25.3227 55.6544 25.0386 54.9754C24.7546 54.2965 24.6803 53.5494 24.8251 52.8287C24.97 52.108 25.3274 51.446 25.8524 50.9264C26.2886 50.4933 26.826 50.1734 27.417 49.9952C28.008 49.817 28.6343 49.7859 29.2403 49.9047C29.8463 50.0235 30.4134 50.2886 30.8912 50.6764C31.369 51.0641 31.7427 51.5627 31.9793 52.1277C32.2159 52.6928 32.308 53.3069 32.2474 53.9156C32.1868 54.5244 31.9755 55.1089 31.6321 55.6174C31.2887 56.1259 30.8239 56.5426 30.2789 56.8306C29.7339 57.1187 29.1255 57.2691 28.5077 57.2685H28.5059ZM28.5059 51.8299C28.2768 51.8296 28.0498 51.874 27.838 51.9607C27.6263 52.0474 27.4339 52.1746 27.2719 52.3351V52.3351C27.1099 52.4952 26.9814 52.6854 26.8937 52.8947C26.806 53.1041 26.7609 53.3285 26.7609 53.5551C26.7609 53.7817 26.806 54.0062 26.8937 54.2155C26.9814 54.4248 27.1099 54.615 27.2719 54.7751C27.5159 55.0166 27.8268 55.1811 28.1652 55.2477C28.5036 55.3143 28.8543 55.2802 29.1731 55.1495C29.4918 55.0188 29.7643 54.7975 29.9561 54.5135C30.1479 54.2295 30.2503 53.8957 30.2505 53.554C30.2512 53.3275 30.2064 53.1031 30.1188 52.8938C30.0311 52.6846 29.9023 52.4947 29.7399 52.3351C29.5778 52.1748 29.3854 52.0477 29.1736 51.961C28.9619 51.8743 28.735 51.8298 28.5059 51.8299V51.8299ZM134 43.3289H44.0752V3.22392H130.246C131.241 3.22495 132.196 3.61692 132.9 4.31383C133.603 5.01075 133.999 5.95566 134 6.94124L134 43.3289ZM46.0855 41.3386H131.99V6.94089C131.989 6.48314 131.805 6.04429 131.478 5.72061C131.151 5.39693 130.708 5.21484 130.246 5.21428H46.0855V41.3386ZM28.5059 37.8825C27.7633 37.8825 27.0374 37.6645 26.42 37.256C25.8026 36.8476 25.3214 36.267 25.0372 35.5877C24.753 34.9085 24.6787 34.1611 24.8235 33.44C24.9684 32.7189 25.326 32.0565 25.8511 31.5366C26.3761 31.0168 27.0451 30.6627 27.7734 30.5193C28.5017 30.3758 29.2566 30.4495 29.9427 30.7308C30.6287 31.0122 31.2151 31.4886 31.6276 32.0999C32.0402 32.7113 32.2604 33.43 32.2604 34.1652C32.2593 35.1507 31.8633 36.0956 31.1595 36.7925C30.4556 37.4894 29.5013 37.8814 28.5059 37.8825V37.8825ZM28.5059 32.4382C28.1609 32.4383 27.8237 32.5396 27.5369 32.7295C27.2501 32.9193 27.0266 33.189 26.8947 33.5046C26.7627 33.8202 26.7282 34.1675 26.7956 34.5024C26.863 34.8374 27.0292 35.1451 27.2732 35.3866C27.5171 35.628 27.828 35.7925 28.1663 35.859C28.5047 35.9256 28.8554 35.8913 29.1741 35.7606C29.4928 35.6298 29.7651 35.4084 29.9567 35.1243C30.1483 34.8403 30.2506 34.5064 30.2505 34.1648C30.2499 33.7069 30.0659 33.268 29.7388 32.9443C29.4118 32.6206 28.9683 32.4386 28.5059 32.4382V32.4382ZM20.2575 37.8825C19.5149 37.8825 18.789 37.6645 18.1716 37.256C17.5541 36.8476 17.0729 36.267 16.7888 35.5877C16.5046 34.9085 16.4302 34.1611 16.5751 33.44C16.72 32.7189 17.0776 32.0565 17.6026 31.5366C18.1277 31.0168 18.7967 30.6627 19.525 30.5193C20.2533 30.3758 21.0082 30.4495 21.6942 30.7308C22.3803 31.0122 22.9667 31.4886 23.3792 32.0999C23.7918 32.7113 24.0119 33.43 24.0119 34.1652C24.0104 35.1506 23.6144 36.0953 22.9106 36.7921C22.2068 37.4889 21.2527 37.881 20.2575 37.8825V37.8825ZM20.2575 32.4382C19.9124 32.438 19.5751 32.5391 19.2881 32.7288C19.0011 32.9184 18.7774 33.1881 18.6452 33.5036C18.513 33.8192 18.4784 34.1665 18.5456 34.5016C18.6128 34.8366 18.7788 35.1445 19.0228 35.3861C19.2667 35.6277 19.5775 35.7922 19.9159 35.8589C20.2543 35.9256 20.6051 35.8914 20.9239 35.7607C21.2426 35.63 21.5151 35.4085 21.7068 35.1245C21.8984 34.8404 22.0007 34.5064 22.0006 34.1648C21.9997 33.7073 21.8157 33.2688 21.4891 32.9452C21.1624 32.6216 20.7195 32.4393 20.2575 32.4382V32.4382ZM12.0054 37.8825C11.263 37.882 10.5373 37.6636 9.92024 37.2548C9.30314 36.8461 8.82231 36.2653 8.53852 35.586C8.25474 34.9067 8.18074 34.1594 8.3259 33.4384C8.47105 32.7175 8.82882 32.0554 9.354 31.5358C9.87917 31.0161 10.5482 30.6623 11.2764 30.5191C12.0046 30.3759 12.7594 30.4496 13.4453 30.7311C14.1312 31.0125 14.7174 31.4889 15.1299 32.1002C15.5423 32.7115 15.7624 33.4301 15.7624 34.1652C15.7615 35.1512 15.3653 36.0966 14.6608 36.7936C13.9564 37.4906 13.0013 37.8822 12.0054 37.8825V37.8825ZM12.0054 32.4382C11.6606 32.4387 11.3236 32.5404 11.037 32.7305C10.7505 32.9206 10.5274 33.1905 10.3957 33.5061C10.2641 33.8217 10.2299 34.1689 10.2976 34.5037C10.3652 34.8386 10.5315 35.1461 10.7756 35.3873C11.0197 35.6286 11.3305 35.7928 11.6688 35.8592C12.0071 35.9256 12.3577 35.8912 12.6763 35.7603C12.9948 35.6295 13.2671 35.4081 13.4586 35.1241C13.6501 34.8401 13.7522 34.5063 13.7522 34.1648C13.752 33.9379 13.7067 33.7132 13.6188 33.5036C13.5309 33.2941 13.4022 33.1037 13.24 32.9433C13.0778 32.783 12.8853 32.6559 12.6734 32.5692C12.4616 32.4825 12.2346 32.438 12.0054 32.4382V32.4382ZM116.497 32.4382H58.7524C57.7565 32.4372 56.8017 32.045 56.0975 31.3478C55.3933 30.6505 54.9972 29.7052 54.9962 28.7191V15.1091C54.9974 14.1233 55.3936 13.1782 56.0978 12.4813C56.802 11.7843 57.7568 11.3925 58.7524 11.3918H116.497C117.492 11.3926 118.447 11.7845 119.15 12.4815C119.854 13.1784 120.25 14.1235 120.251 15.1091V28.7191C120.25 29.705 119.855 30.6503 119.151 31.3476C118.447 32.0448 117.492 32.4371 116.497 32.4382H116.497ZM58.7524 13.3818C58.2897 13.3821 57.846 13.5641 57.5186 13.8879C57.1913 14.2118 57.0071 14.6509 57.0064 15.1091V28.7191C57.0069 29.1775 57.191 29.6169 57.5183 29.941C57.8457 30.2651 58.2895 30.4474 58.7524 30.4479H116.497C116.959 30.447 117.402 30.2645 117.729 29.9404C118.056 29.6163 118.24 29.1771 118.24 28.7191V15.1091C118.24 14.6513 118.056 14.2123 117.729 13.8884C117.402 13.5646 116.959 13.3823 116.497 13.3818H58.7524ZM126.122 29.7143C125.491 29.714 124.886 29.4659 124.439 29.0243C123.993 28.5827 123.742 27.9838 123.741 27.3589V19.1928C123.741 18.5679 123.991 17.9685 124.438 17.5266C124.884 17.0847 125.489 16.8364 126.121 16.8364C126.752 16.8364 127.357 17.0847 127.803 17.5266C128.25 17.9685 128.501 18.5679 128.501 19.1928V27.3589C128.5 27.9833 128.249 28.582 127.803 29.0236C127.358 29.4651 126.753 29.7135 126.122 29.7143ZM126.122 18.8261C126.024 18.826 125.93 18.8645 125.86 18.9331C125.791 19.0017 125.751 19.0949 125.751 19.1921V27.3589C125.751 27.7636 126.49 27.7678 126.49 27.3589V19.1928C126.49 19.0959 126.452 19.0029 126.383 18.9342C126.314 18.8654 126.22 18.8265 126.122 18.8261V18.8261ZM49.1302 29.7143C48.4991 29.714 47.8939 29.4659 47.4474 29.0243C47.0008 28.5827 46.7495 27.9838 46.7484 27.3589V19.1928C46.7484 18.5679 46.9992 17.9685 47.4455 17.5266C47.8919 17.0847 48.4972 16.8364 49.1284 16.8364C49.7596 16.8364 50.365 17.0847 50.8113 17.5266C51.2577 17.9685 51.5084 18.5679 51.5084 19.1928V27.3589C51.5079 27.9833 51.2571 28.582 50.8113 29.0236C50.3654 29.4651 49.7608 29.7135 49.1302 29.7143V29.7143ZM49.1302 18.8261C49.032 18.826 48.9377 18.8645 48.868 18.9331C48.7984 19.0017 48.7591 19.0949 48.7587 19.1921V27.3589C48.7587 27.759 49.4982 27.7636 49.4982 27.3589V19.1928C49.4984 19.0959 49.4597 19.0029 49.3908 18.9342C49.3218 18.8654 49.2281 18.8265 49.1302 18.8261V18.8261ZM28.5059 29.7143C27.7633 29.7143 27.0374 29.4963 26.42 29.0878C25.8026 28.6794 25.3214 28.0988 25.0372 27.4195C24.753 26.7403 24.6787 25.9928 24.8235 25.2718C24.9684 24.5507 25.326 23.8883 25.8511 23.3684C26.3761 22.8485 27.0451 22.4945 27.7734 22.3511C28.5017 22.2076 29.2566 22.2813 29.9427 22.5626C30.6287 22.844 31.2151 23.3204 31.6276 23.9317C32.0402 24.543 32.2604 25.2618 32.2604 25.997C32.2593 26.9825 31.8633 27.9274 31.1595 28.6243C30.4556 29.3212 29.5013 29.7132 28.5059 29.7143ZM28.5059 24.2732C28.1612 24.2734 27.8243 24.3748 27.5378 24.5646C27.2513 24.7544 27.0281 25.0241 26.8964 25.3395C26.7647 25.6549 26.7304 26.0019 26.7979 26.3366C26.8654 26.6712 27.0316 26.9786 27.2755 27.2198C27.5194 27.4609 27.8301 27.625 28.1682 27.6914C28.5064 27.7577 28.8568 27.7233 29.1751 27.5924C29.4935 27.4616 29.7655 27.2402 29.9568 26.9563C30.1481 26.6723 30.2501 26.3386 30.2498 25.9973C30.2488 25.5399 30.0647 25.1015 29.7378 24.7783C29.4109 24.4551 28.9679 24.2735 28.5059 24.2732ZM20.2575 29.7143C19.5149 29.7143 18.789 29.4963 18.1716 29.0878C17.5541 28.6794 17.0729 28.0988 16.7888 27.4195C16.5046 26.7403 16.4302 25.9928 16.5751 25.2718C16.72 24.5507 17.0776 23.8883 17.6026 23.3684C18.1277 22.8485 18.7967 22.4945 19.525 22.3511C20.2533 22.2076 21.0082 22.2813 21.6942 22.5626C22.3803 22.844 22.9667 23.3204 23.3792 23.9317C23.7918 24.543 24.0119 25.2618 24.0119 25.997C24.0105 26.9824 23.6145 27.9271 22.9107 28.624C22.2069 29.3208 21.2528 29.7129 20.2575 29.7143V29.7143ZM20.2575 24.2732C19.9127 24.2733 19.5757 24.3746 19.2892 24.5643C19.0026 24.754 18.7792 25.0236 18.6474 25.339C18.5156 25.6544 18.4812 26.0014 18.5486 26.3361C18.6161 26.6709 18.7822 26.9783 19.0261 27.2195C19.27 27.4607 19.5807 27.6249 19.9188 27.6913C20.257 27.7577 20.6074 27.7233 20.9258 27.5925C21.2442 27.4617 21.5163 27.2403 21.7076 26.9563C21.8989 26.6724 22.0009 26.3387 22.0006 25.9973C21.9993 25.5402 21.8152 25.1021 21.4885 24.779C21.1618 24.4559 20.7192 24.274 20.2575 24.2732V24.2732ZM12.0054 29.7143C11.263 29.7138 10.5373 29.4954 9.92024 29.0866C9.30314 28.6778 8.82231 28.0971 8.53852 27.4178C8.25474 26.7385 8.18074 25.9912 8.3259 25.2702C8.47105 24.5493 8.82882 23.8872 9.354 23.3675C9.87917 22.8479 10.5482 22.4941 11.2764 22.3509C12.0046 22.2077 12.7594 22.2814 13.4453 22.5628C14.1312 22.8443 14.7174 23.3207 15.1299 23.932C15.5423 24.5433 15.7624 25.2619 15.7624 25.997C15.7616 26.983 15.3654 27.9284 14.6609 28.6255C13.9565 29.3225 13.0014 29.7141 12.0054 29.7143ZM12.0054 24.2732C11.6609 24.274 11.3242 24.3759 11.0381 24.566C10.752 24.7561 10.5292 25.026 10.398 25.3414C10.2667 25.6569 10.2328 26.0038 10.3006 26.3383C10.3685 26.6728 10.5349 26.9799 10.7789 27.2208C11.023 27.4616 11.3336 27.6255 11.6717 27.6916C12.0097 27.7577 12.36 27.7231 12.6782 27.5922C12.9964 27.4612 13.2683 27.2398 13.4594 26.956C13.6506 26.6721 13.7525 26.3385 13.7522 25.9973C13.7514 25.5394 13.567 25.1005 13.2394 24.7771C12.9118 24.4538 12.468 24.2725 12.0054 24.2732V24.2732ZM35.0112 18.8261H8.25202V8.66821H35.0112V18.8261ZM10.2623 16.8354H33.0009V10.6586H10.2623V16.8354Z" fill="#666665"/>
</svg>
