<svg width="45" height="44" viewBox="0 0 45 44" fill="none" xmlns="http://www.w3.org/2000/svg">
<g clip-path="url(#clip0_78_2445)">
<g clip-path="url(#clip1_78_2445)">
<rect width="45" height="44" fill="url(#paint0_linear_78_2445)"/>
<path d="M15.2305 23.608L17.9001 30.8324C17.9001 30.8324 18.2338 31.5083 18.5913 31.5083C18.9489 31.5083 24.2638 26.1016 24.2638 26.1016L30.1748 14.9385L15.3258 21.7436L15.2305 23.608Z" fill="#C8DAEA"/>
<path d="M18.7697 25.4609L18.2573 30.7861C18.2573 30.7861 18.0427 32.4175 19.7112 30.7861C21.3797 29.1548 22.9765 27.8964 22.9765 27.8964L18.7697 25.4609Z" fill="#A9C6D8"/>
<path d="M15.2787 23.8661L9.78813 22.1168C9.78813 22.1168 9.13266 21.8566 9.3432 21.2661C9.38653 21.1443 9.4743 21.0409 9.73653 20.8622C10.9532 20.033 32.2565 12.5462 32.2565 12.5462C32.5637 12.4407 32.8941 12.4179 33.2134 12.4799C33.3011 12.5065 33.3801 12.5554 33.4423 12.6216C33.5044 12.6878 33.5474 12.7689 33.5669 12.8567C33.6052 13.0117 33.6212 13.1712 33.6146 13.3306C33.6129 13.4684 33.5955 13.5962 33.5828 13.7966C33.453 15.8435 29.571 31.1204 29.571 31.1204C29.571 31.1204 29.3388 32.0143 28.5064 32.0448C28.3017 32.0515 28.0977 32.0178 27.9066 31.9458C27.7155 31.8737 27.5412 31.7647 27.3941 31.6253C25.7608 30.2515 20.1156 26.542 18.8682 25.7261C18.8402 25.7074 18.8165 25.6831 18.7989 25.6549C18.7813 25.6266 18.77 25.5949 18.7659 25.562C18.7484 25.4761 18.844 25.3694 18.844 25.3694C18.844 25.3694 28.674 16.8258 28.9354 15.9293C28.9557 15.8598 28.8797 15.8255 28.7765 15.8555C28.1235 16.0903 16.8057 23.0783 15.5565 23.85C15.4665 23.8766 15.3713 23.8821 15.2787 23.8661Z" fill="white"/>
</g>
</g>
<defs>
<linearGradient id="paint0_linear_78_2445" x1="45" y1="-2.28148" x2="1.06098" y2="44.9863" gradientUnits="userSpaceOnUse">
<stop stop-color="#32AADF"/>
<stop offset="1" stop-color="#2097D4"/>
</linearGradient>
<clipPath id="clip0_78_2445">
<rect width="45" height="44" rx="20" fill="white"/>
</clipPath>
<clipPath id="clip1_78_2445">
<rect width="45" height="44" fill="white"/>
</clipPath>
</defs>
</svg>
