<svg width="18" height="19" viewBox="0 0 18 19" fill="none" xmlns="http://www.w3.org/2000/svg">
<path fill-rule="evenodd" clip-rule="evenodd" d="M9 2.75C7.13604 2.75 5.625 4.26104 5.625 6.125C5.625 7.98896 7.13604 9.5 9 9.5C10.864 9.5 12.375 7.98896 12.375 6.125C12.375 4.26104 10.864 2.75 9 2.75ZM4.125 6.125C4.125 3.43261 6.30761 1.25 9 1.25C11.6924 1.25 13.875 3.43261 13.875 6.125C13.875 8.81739 11.6924 11 9 11C6.30761 11 4.125 8.81739 4.125 6.125Z" fill="#B50000"/>
<path fill-rule="evenodd" clip-rule="evenodd" d="M8.99992 11C5.72619 11 3.06842 13.0568 2.40982 15.6961C2.3765 15.8296 2.40986 15.9459 2.50534 16.049C2.60987 16.1618 2.78785 16.25 2.99993 16.25H14.9999C15.212 16.25 15.39 16.1618 15.4945 16.049C15.59 15.9459 15.6234 15.8296 15.59 15.6961C14.9314 13.0568 12.2737 11 8.99992 11ZM0.954448 15.3329C1.79968 11.9457 5.12356 9.5 8.99992 9.5C12.8763 9.5 16.2002 11.9457 17.0454 15.3329C17.396 16.738 16.1752 17.75 14.9999 17.75H2.99993C1.82463 17.75 0.603828 16.738 0.954448 15.3329Z" fill="#B50000"/>
</svg>
