<svg width="44" height="44" viewBox="0 0 44 44" fill="none" xmlns="http://www.w3.org/2000/svg">
<g clip-path="url(#clip0_78_2433)">
<rect width="44" height="44" fill="url(#paint0_linear_78_2433)"/>
<path d="M35.4281 15.4161V15.3835C34.7437 12.6457 31.68 9.71236 28.877 9.09311H28.8444C24.3141 8.21311 19.6859 8.21311 15.1555 9.09311H15.1229C12.32 9.71236 9.25628 12.6457 8.57183 15.3835V15.4161C7.72443 19.262 7.72443 23.1405 8.57183 26.9538V26.9864C9.22369 29.6264 12.0592 32.4294 14.7644 33.179V36.2427C14.7644 37.3509 16.1007 37.905 16.8829 37.0901L19.9792 33.8635C20.6637 33.8961 21.3155 33.9287 22 33.9287C24.2815 33.9287 26.5629 33.7005 28.8444 33.2768H28.877C31.68 32.6575 34.7437 29.7242 35.4281 26.9864V26.9538C36.2755 23.1405 36.2755 19.262 35.4281 15.4161ZM32.9837 26.4324C32.5274 28.225 30.2133 30.4413 28.3555 30.865C25.9437 31.3213 23.4992 31.5168 21.0874 31.4516C21.0548 31.4516 20.9896 31.4842 20.957 31.5168C20.5985 31.8753 18.6755 33.8309 18.6755 33.8309L16.2637 36.3079C16.1007 36.5035 15.7748 36.3731 15.7748 36.1124V31.0279C15.7748 30.9301 15.7096 30.865 15.6444 30.865C13.7867 30.4413 11.4726 28.225 11.0163 26.4324C10.2666 22.9775 10.2666 19.4575 11.0163 16.0027C11.4726 14.2101 13.7867 11.9938 15.6444 11.5701C19.8489 10.7553 24.1511 10.7553 28.3555 11.5701C30.2133 11.9938 32.5274 14.2101 32.9837 16.0027C33.7333 19.4575 33.7333 22.945 32.9837 26.4324Z" fill="white"/>
<path d="M26.0089 28.7789C25.7156 28.6811 25.4548 28.6485 25.1941 28.5181C22.5867 27.4426 20.2074 26.0411 18.2845 23.9226C17.2089 22.7167 16.3615 21.3478 15.6445 19.8811C15.3186 19.1967 15.0252 18.4796 14.7319 17.7626C14.4711 17.1107 14.8623 16.4589 15.2534 15.97C15.6445 15.5137 16.1334 15.1552 16.6874 14.8944C17.1111 14.6989 17.5348 14.7967 17.8282 15.1552C18.48 15.9374 19.0993 16.7196 19.5882 17.6322C19.8815 18.1863 19.8163 18.8381 19.2623 19.2292C19.1319 19.327 19.0015 19.4248 18.8711 19.5226C18.7734 19.6204 18.6756 19.7181 18.5778 19.8159C18.4474 20.0441 18.4474 20.3048 18.5126 20.5329C19.1971 22.3907 20.3378 23.8574 22.1956 24.607C22.4889 24.7374 22.7823 24.8678 23.1408 24.8352C23.7274 24.77 23.8904 24.1181 24.3141 23.7922C24.7052 23.4663 25.2267 23.4663 25.6504 23.727C26.0741 23.9878 26.4978 24.2811 26.8889 24.5744C27.28 24.8678 27.7037 25.1285 28.0623 25.487C28.4208 25.8129 28.5511 26.2041 28.3556 26.6278C27.9971 27.41 27.443 28.0618 26.6608 28.4855C26.5304 28.6485 26.2697 28.6811 26.0089 28.7789C26.2697 28.6811 25.7156 28.6811 26.0089 28.7789Z" fill="white"/>
<path d="M22.4562 14.0145C25.6503 14.2753 28.2251 16.4916 28.8117 19.7182C28.9095 20.3049 28.9421 20.8916 29.0073 21.4456C29.0399 21.7064 28.8769 21.9345 28.6162 21.9345C28.3554 21.9345 28.2251 21.7064 28.1925 21.4782C28.1599 20.9893 28.1273 20.5005 28.0621 20.0116C27.7036 17.4693 25.6829 15.3834 23.1732 14.9271C22.7821 14.8619 22.391 14.8293 22.0325 14.7967C21.8043 14.7642 21.4784 14.7642 21.4132 14.4382C21.3806 14.1775 21.5762 13.9819 21.8369 13.9819C21.9021 13.9819 21.9673 13.9819 22.0325 13.9819C22.1954 14.0145 22.3258 14.0145 22.4562 14.0145Z" fill="white"/>
<path d="M27.1821 20.6959C27.1821 20.7285 27.1821 20.8263 27.1495 20.924C27.0517 21.25 26.5302 21.3152 26.4325 20.9566C26.3999 20.8589 26.3999 20.7285 26.3999 20.6307C26.3999 19.9137 26.2369 19.1966 25.8784 18.5774C25.5199 17.9255 24.9332 17.404 24.2488 17.0781C23.8577 16.8826 23.4014 16.7522 22.9777 16.687C22.7821 16.6544 22.5865 16.6218 22.391 16.6218C22.1628 16.5892 22.0325 16.4263 22.0325 16.1981C22.0325 15.97 22.1954 15.807 22.4562 15.8396C23.2384 15.8722 23.988 16.0678 24.6725 16.4263C26.074 17.1759 26.8888 18.3492 27.1169 19.9463C27.1169 20.0115 27.1495 20.0766 27.1495 20.1744C27.1495 20.2722 27.1495 20.4678 27.1821 20.6959C27.1495 20.4678 27.1821 20.7285 27.1821 20.6959Z" fill="white"/>
<path d="M25.0638 20.6307C24.7704 20.6307 24.6401 20.4678 24.6075 20.207C24.5749 20.0115 24.5749 19.8485 24.5423 19.653C24.4445 19.2944 24.2816 18.9685 23.9882 18.773C23.8579 18.6752 23.6949 18.61 23.5319 18.5448C23.3364 18.4796 23.1082 18.5122 22.9127 18.447C22.6845 18.3819 22.5542 18.2189 22.5867 17.9907C22.6193 17.7952 22.8149 17.6322 23.0104 17.6648C24.3141 17.7626 25.2593 18.447 25.4223 20.0115C25.4223 20.1093 25.4549 20.2396 25.4223 20.3374C25.3245 20.5004 25.1942 20.5982 25.0638 20.6307C25.1942 20.5982 24.7704 20.6307 25.0638 20.6307Z" fill="white"/>
<path d="M25.4873 27.0191C25.6829 26.9539 25.2266 26.9539 25.4873 27.0191V27.0191Z" fill="white"/>
<path d="M26.4979 20.0116C26.4653 19.8161 26.4979 20.0768 26.4979 20.0116V20.0116Z" fill="white"/>
</g>
<defs>
<linearGradient id="paint0_linear_78_2433" x1="44" y1="-1.62963" x2="1.35987e-06" y2="44" gradientUnits="userSpaceOnUse">
<stop stop-color="#8861B8"/>
<stop offset="1" stop-color="#6F3FAA"/>
</linearGradient>
<clipPath id="clip0_78_2433">
<rect width="44" height="44" rx="20" fill="white"/>
</clipPath>
</defs>
</svg>
