<svg width="44" height="44" viewBox="0 0 44 44" fill="none" xmlns="http://www.w3.org/2000/svg">
<g clip-path="url(#clip0_78_2426)">
<g clip-path="url(#clip1_78_2426)">
<rect width="44" height="44" fill="url(#paint0_linear_78_2426)"/>
<path fill-rule="evenodd" clip-rule="evenodd" d="M32.5827 11.688C30.1895 9.29386 27.0077 7.85112 23.6298 7.6284C20.252 7.40569 16.9083 8.41818 14.2214 10.4773C11.5345 12.5365 9.68757 15.502 9.02447 18.8216C8.36136 22.1412 8.9273 25.5887 10.6169 28.522L8.63696 35.752L16.0355 33.8119C18.0819 34.926 20.3748 35.5098 22.7048 35.5099H22.7104C25.4703 35.5097 28.1681 34.6913 30.4629 33.1581C32.7577 31.625 34.5465 29.4459 35.6031 26.8963C36.6597 24.3467 36.9367 21.5411 36.3991 18.8342C35.8615 16.1272 34.5334 13.6403 32.5827 11.688V11.688ZM22.7104 33.1537H22.7057C20.6284 33.154 18.5892 32.5957 16.8017 31.5373L16.378 31.286L11.9878 32.4373L13.1597 28.1581L12.8838 27.7195C11.5167 25.541 10.9124 22.9699 11.1657 20.4105C11.419 17.8511 12.5158 15.4485 14.2834 13.5803C16.0511 11.7121 18.3895 10.4843 20.931 10.09C23.4725 9.69559 26.073 10.157 28.3236 11.4016C30.5743 12.6463 32.3476 14.6036 33.3646 16.9659C34.3817 19.3282 34.5849 21.9615 33.9422 24.4518C33.2996 26.9421 31.8476 29.1483 29.8145 30.7235C27.7814 32.2986 25.2824 33.1535 22.7105 33.1537H22.7104ZM29.0732 24.4688C28.7245 24.2943 27.0101 23.4509 26.6903 23.3346C26.3706 23.2183 26.1382 23.1601 25.9058 23.5091C25.6733 23.8581 25.005 24.6433 24.8016 24.8759C24.5982 25.1086 24.3948 25.1377 24.0461 24.9632C23.0179 24.5537 22.0689 23.9682 21.2418 23.2329C20.4793 22.5281 19.8256 21.7143 19.3018 20.8178C19.0984 20.4688 19.2802 20.28 19.4548 20.1063C19.6116 19.9502 19.8035 19.6992 19.9778 19.4956C20.1212 19.3194 20.2387 19.1235 20.3266 18.914C20.3729 18.8178 20.3945 18.7116 20.3895 18.605C20.3844 18.4983 20.3528 18.3946 20.2975 18.3033C20.2103 18.1288 19.5129 16.4129 19.2223 15.7149C18.9393 15.0351 18.6519 15.1271 18.4378 15.1165C18.2346 15.1063 18.0019 15.1042 17.7694 15.1042C17.5927 15.1088 17.4189 15.15 17.2588 15.225C17.0988 15.3001 16.956 15.4075 16.8395 15.5404C16.4452 15.9138 16.1331 16.3653 15.923 16.866C15.7128 17.3667 15.6093 17.9057 15.619 18.4487C15.619 20.1645 16.8685 21.8222 17.0429 22.0549C17.2173 22.2875 19.5018 25.8088 22.9999 27.3189C23.6492 27.5985 24.3128 27.8436 24.9879 28.0532C25.6994 28.2694 26.4514 28.3166 27.1844 28.1913C27.8543 28.0913 29.2475 27.348 29.5381 26.5336C29.8288 25.7193 29.8287 25.0213 29.7415 24.8759C29.6543 24.7305 29.4219 24.6433 29.0732 24.4688Z" fill="white"/>
</g>
</g>
<defs>
<linearGradient id="paint0_linear_78_2426" x1="44" y1="-2.6226e-06" x2="-2.6226e-06" y2="44" gradientUnits="userSpaceOnUse">
<stop stop-color="#92EC73"/>
<stop offset="1" stop-color="#79CE52"/>
</linearGradient>
<clipPath id="clip0_78_2426">
<rect width="44" height="44" rx="20" fill="white"/>
</clipPath>
<clipPath id="clip1_78_2426">
<rect width="44" height="44" fill="white"/>
</clipPath>
</defs>
</svg>
